<?xml version="1.0" encoding="UTF-8"?>
<svg version="1.1" xmlns="http://www.w3.org/2000/svg" width="512" height="512">
<path d="M0 0 C168.96 0 337.92 0 512 0 C512 168.96 512 337.92 512 512 C343.04 512 174.08 512 0 512 C0 343.04 0 174.08 0 0 Z " fill="#106D20" transform="translate(0,0)"/>
<path d="M0 0 C4.9071137 2.59243743 6.83185236 4.78870472 9.3125 9.75 C9.3125 17.01 9.3125 24.27 9.3125 31.75 C52.8725 31.75 96.4325 31.75 141.3125 31.75 C141.3125 24.49 141.3125 17.23 141.3125 9.75 C145.2298494 2.89463854 146.3519142 0.94807973 153.3125 -1.25 C158.77617337 -1.92097743 162.48437541 -0.84288172 167.3125 1.75 C170.35307572 4.39397889 172.03622114 5.92116342 173.3125 9.75 C173.39428114 11.45016844 173.41999501 13.15336297 173.41015625 14.85546875 C173.40693359 15.83837891 173.40371094 16.82128906 173.40039062 17.83398438 C173.39201172 18.85814453 173.38363281 19.88230469 173.375 20.9375 C173.37048828 21.97326172 173.36597656 23.00902344 173.36132812 24.07617188 C173.3495401 26.63417266 173.33308515 29.19205733 173.3125 31.75 C174.00698242 31.7185791 174.70146484 31.6871582 175.41699219 31.65478516 C202.40321475 30.59342858 202.40321475 30.59342858 212.98046875 40.1640625 C217.28376714 44.58078116 219.70184579 47.47940154 220.3125 53.75 C220.9725 53.75 221.6325 53.75 222.3125 53.75 C222.38098295 85.04611005 222.43405233 116.34220024 222.46569599 147.63836747 C222.46944797 151.33573468 222.47333095 155.03310175 222.47729492 158.73046875 C222.47808185 159.46652749 222.47886878 160.20258624 222.47967956 160.96094979 C222.49272258 172.86879227 222.51637033 184.77659117 222.54395839 196.68440782 C222.57204333 208.90892753 222.58868278 221.13342447 222.59476548 233.35797513 C222.59887553 240.89717354 222.6118424 248.43624875 222.6362494 255.97540922 C222.65402766 261.76288055 222.65585783 267.55027347 222.65182304 273.33776665 C222.65264712 275.7072583 222.65859779 278.07675469 222.67011642 280.44621849 C222.68509917 283.68777531 222.68143223 286.92881008 222.67326355 290.17037964 C222.68200207 291.10231545 222.6907406 292.03425127 222.69974393 292.99442756 C222.65663915 299.34711609 221.43272282 304.76866041 219.3125 310.75 C218.6525 310.75 217.9925 310.75 217.3125 310.75 C217.126875 311.45125 216.94125 312.1525 216.75 312.875 C213.49537267 319.38425466 206.89398021 323.10383785 200.3125 325.75 C197.50320245 326.56725401 195.00630672 326.87640532 192.08445549 326.88142776 C191.24315995 326.88526891 190.40186441 326.88911005 189.53507507 326.8930676 C188.61582909 326.89220112 187.69658312 326.89133463 186.7494812 326.89044189 C185.27873396 326.89489858 185.27873396 326.89489858 183.77827466 326.8994453 C180.48352217 326.90813631 177.18880601 326.9096409 173.89404297 326.91113281 C171.53532331 326.91576076 169.17660439 326.92078538 166.81788635 326.92617798 C159.73305092 326.94067735 152.64822327 326.94668718 145.56337565 326.95157349 C142.22442048 326.9541525 138.88546662 326.95794262 135.5465126 326.96169281 C124.44254394 326.97388553 113.33857719 326.98418409 102.23460197 326.9875679 C101.52406377 326.98778747 100.81352556 326.98800703 100.08145589 326.98823325 C99.36924042 326.98845153 98.65702495 326.98866981 97.92322719 326.9888947 C96.48006813 326.98933816 95.03690906 326.98978473 93.59375 326.99023438 C92.87789695 326.9904558 92.1620439 326.99067723 91.42449833 326.99090537 C79.83376399 326.99485057 68.24309263 327.01229604 56.6523826 327.0355939 C44.7441345 327.05933615 32.83591795 327.0717711 20.9276458 327.07293582 C14.2449855 327.07385109 7.56239599 327.07988625 0.87975693 327.09775543 C-5.40915884 327.1142442 -11.69791914 327.11638756 -17.98684883 327.10761642 C-20.29183811 327.10684645 -22.59683578 327.11118352 -24.90180397 327.12107468 C-28.05557991 327.13381165 -31.20880675 327.12790748 -34.36257935 327.11749268 C-35.26844099 327.12554908 -36.17430264 327.13360548 -37.10761464 327.14190602 C-45.22026332 327.07952013 -53.25140864 325.64162946 -59.625 320.3125 C-60.33527344 319.73628906 -61.04554687 319.16007812 -61.77734375 318.56640625 C-63.69438898 316.74344913 -65.23840547 314.96225403 -66.6875 312.75 C-66.6875 312.09 -66.6875 311.43 -66.6875 310.75 C-67.3475 310.75 -68.0075 310.75 -68.6875 310.75 C-69.0175 308.44 -69.3475 306.13 -69.6875 303.75 C-70.3475 303.75 -71.0075 303.75 -71.6875 303.75 C-71.6875 221.25 -71.6875 138.75 -71.6875 53.75 C-71.0275 53.75 -70.3675 53.75 -69.6875 53.75 C-69.501875 52.76 -69.31625 51.77 -69.125 50.75 C-67.00079767 43.4118465 -61.03533408 38.52900528 -54.6796875 34.7578125 C-50.21117639 32.49727158 -46.77718479 31.50292631 -41.73046875 31.5546875 C-40.61865234 31.56113281 -39.50683594 31.56757812 -38.36132812 31.57421875 C-37.21083984 31.59097656 -36.06035156 31.60773438 -34.875 31.625 C-33.70517578 31.63402344 -32.53535156 31.64304688 -31.33007812 31.65234375 C-28.44900947 31.67586268 -25.56836011 31.70873148 -22.6875 31.75 C-22.70844727 31.1202124 -22.72939453 30.4904248 -22.75097656 29.84155273 C-22.83470099 26.95703429 -22.88633621 24.07277232 -22.9375 21.1875 C-22.97101563 20.19685547 -23.00453125 19.20621094 -23.0390625 18.18554688 C-23.12411625 11.7852524 -22.58889889 7.90615459 -18.6875 2.75 C-13.04674455 -1.89053902 -6.78577039 -2.30026115 0 0 Z " fill="#FEFEFE" transform="translate(180.6875,93.25)"/>
<path d="M0 0 C75.9 0 151.8 0 230 0 C230 54.12 230 108.24 230 164 C154.1 164 78.2 164 0 164 C0 109.88 0 55.76 0 0 Z " fill="#126E21" transform="translate(141,223)"/>
<path d="M0 0 C3.84615151 2.00065206 6.11798387 4.31938212 7.83984375 8.26953125 C7.83984375 9.25953125 7.83984375 10.24953125 7.83984375 11.26953125 C8.49984375 11.26953125 9.15984375 11.26953125 9.83984375 11.26953125 C9.96484375 18.89453125 9.96484375 18.89453125 8.83984375 22.26953125 C8.17984375 22.26953125 7.51984375 22.26953125 6.83984375 22.26953125 C6.53046875 23.38328125 6.53046875 23.38328125 6.21484375 24.51953125 C4.29249877 28.3642212 2.75963554 29.44480059 -1.16015625 31.26953125 C-6.83727837 32.03944233 -11.55390225 32.01727018 -16.78515625 29.58203125 C-19.22708214 27.20436657 -20.25463624 25.5294033 -21.16015625 22.26953125 C-21.82015625 22.26953125 -22.48015625 22.26953125 -23.16015625 22.26953125 C-24.05230277 19.59309168 -24.29555836 18.01568747 -24.28515625 15.26953125 C-24.28773438 14.58890625 -24.2903125 13.90828125 -24.29296875 13.20703125 C-24.16015625 11.26953125 -24.16015625 11.26953125 -23.16015625 8.26953125 C-22.50015625 8.26953125 -21.84015625 8.26953125 -21.16015625 8.26953125 C-20.95390625 7.52703125 -20.74765625 6.78453125 -20.53515625 6.01953125 C-16.60646815 -1.83784495 -7.68764206 -2.59961856 0 0 Z " fill="#F7FAF8" transform="translate(263.16015625,322.73046875)"/>
<path d="M0 0 C4.4491303 2.59949186 7.60988789 5.31591127 9.7734375 10.09375 C10.62623929 14.54477691 10.69381102 18.33316453 8.5625 22.41015625 C5.33652265 26.85610981 2.07405613 30.32687712 -3.2265625 32.09375 C-9.22252842 32.6815898 -13.3655269 31.50054273 -18.2265625 28.09375 C-21.66121246 25.11539412 -23.08834682 22.52796203 -23.52734375 17.97265625 C-23.53786627 14.99478177 -23.44595493 12.06286092 -23.2265625 9.09375 C-22.5665625 9.09375 -21.9065625 9.09375 -21.2265625 9.09375 C-20.9996875 8.35125 -20.7728125 7.60875 -20.5390625 6.84375 C-18.9604075 3.53609191 -17.23042151 2.14516591 -14.2265625 0.09375 C-9.45437692 -1.49697853 -4.74514241 -1.93135621 0 0 Z " fill="#F8FAF8" transform="translate(197.2265625,256.90625)"/>
<path d="M0 0 C3.44317919 1.81944837 6.05438033 3.83148918 7.98046875 7.23046875 C7.98046875 7.89046875 7.98046875 8.55046875 7.98046875 9.23046875 C8.64046875 9.23046875 9.30046875 9.23046875 9.98046875 9.23046875 C11.03693771 19.29207788 11.03693771 19.29207788 8.6328125 23.703125 C4.39633839 28.68447368 0.21221204 31.81153906 -6.39453125 32.66796875 C-11.75843769 32.02060073 -15.85402842 30.50058524 -19.63671875 26.53515625 C-22.84740925 22.05470115 -23.75698356 18.03479843 -23.4296875 12.5546875 C-22.49773908 7.27364646 -19.52790642 4.36209387 -15.33203125 1.35546875 C-10.31660182 -1.52514035 -5.45134443 -2.07720474 0 0 Z " fill="#F8FBF9" transform="translate(328.01953125,256.76953125)"/>
<path d="M0 0 C4.23301121 2.82200747 7.17159664 5.95228992 8.8125 10.875 C8.90607692 12.72727252 8.94243909 14.5828718 8.9375 16.4375 C8.94136719 17.89349609 8.94136719 17.89349609 8.9453125 19.37890625 C8.8125 21.875 8.8125 21.875 7.8125 23.875 C7.1525 23.875 6.4925 23.875 5.8125 23.875 C5.626875 24.4525 5.44125 25.03 5.25 25.625 C3.15132339 28.90988514 0.37552372 30.51533342 -3.1875 31.875 C-8.49656252 32.80587609 -12.64152145 31.72945165 -17.1875 28.875 C-19.0625 27.3125 -19.0625 27.3125 -20.1875 25.875 C-20.1875 25.215 -20.1875 24.555 -20.1875 23.875 C-20.8475 23.875 -21.5075 23.875 -22.1875 23.875 C-24.15374161 19.94251678 -23.51610277 15.17117694 -23.1875 10.875 C-21.42442004 5.58576013 -18.57594888 3.07491064 -14.1875 -0.125 C-9.20670617 -1.78526461 -4.88476371 -1.72403425 0 0 Z " fill="#FAFCFA" transform="translate(263.1875,257.125)"/>
<path d="M0 0 C4.86108919 2.29796944 7.70203056 5.13891081 10 10 C10.82171924 16.19520912 10.70636199 21.75997098 7 27 C1.66823345 31.8115942 -1.85894586 32.46050814 -8.9375 32.41796875 C-12.96058015 31.86890041 -14.92363651 30.46773709 -17.79296875 27.703125 C-19.1321684 25.81350996 -19.59140212 24.26451834 -20 22 C-20.66 22 -21.32 22 -22 22 C-22.02694851 20.04174127 -22.04637218 18.08337774 -22.0625 16.125 C-22.07410156 15.03445313 -22.08570313 13.94390625 -22.09765625 12.8203125 C-22 10 -22 10 -21 8 C-20.34 8 -19.68 8 -19 8 C-18.79375 7.4225 -18.5875 6.845 -18.375 6.25 C-14.13100396 -0.69472079 -7.38960344 -1.07925654 0 0 Z " fill="#FAFCFB" transform="translate(196,322)"/>
<path d="M0 0 C4.0322912 1.98077463 6.46698025 3.70754471 8 8 C8.66 8 9.32 8 10 8 C11.38226016 10.76452033 11.09525387 13.0461363 11.0625 16.125 C11.05347656 17.22070312 11.04445313 18.31640625 11.03515625 19.4453125 C11.02355469 20.28835938 11.01195312 21.13140625 11 22 C10.34 22 9.68 22 9 22 C8.773125 22.7425 8.54625 23.485 8.3125 24.25 C6.47907322 28.09146563 3.77023176 30.11488412 0 32 C-5.31135952 32.52940021 -9.67272741 32.66363629 -14.5 30.25 C-18.41948592 26.72246267 -20.72181347 23.90499709 -21.23828125 18.51171875 C-21.39682895 12.47856139 -21.29537816 8.63448696 -17 4 C-11.89211327 -0.73413892 -6.64724515 -0.98770359 0 0 Z " fill="#FAFCFB" transform="translate(327,322)"/>
<path d="M0 0 C0.66 0.33 1.32 0.66 2 1 C1.0479279 2.00596297 0.08812654 3.00461563 -0.875 4 C-1.40867187 4.556875 -1.94234375 5.11375 -2.4921875 5.6875 C-4 7 -4 7 -6 7 C-4.60667426 3.63279613 -3.0210714 2.0140476 0 0 Z " fill="#D9E8DC" transform="translate(313,258)"/>
<path d="M0 0 C0.66 0.33 1.32 0.66 2 1 C-0.31 3.31 -2.62 5.62 -5 8 C-5.33 7.34 -5.66 6.68 -6 6 C-4 4 -2 2 0 0 Z " fill="#E5EFE7" transform="translate(248,323)"/>
<path d="M0 0 C0.66 0.33 1.32 0.66 2 1 C-0.31 3.31 -2.62 5.62 -5 8 C-5 5 -5 5 -2.5 2.3125 C-1.675 1.549375 -0.85 0.78625 0 0 Z " fill="#D4E5D7" transform="translate(165,94)"/>
</svg>
