<?xml version="1.0" encoding="UTF-8"?>
<svg version="1.1" xmlns="http://www.w3.org/2000/svg" width="512" height="512">
<path d="M0 0 C168.96 0 337.92 0 512 0 C512 168.96 512 337.92 512 512 C343.04 512 174.08 512 0 512 C0 343.04 0 174.08 0 0 Z " fill="#106D20" transform="translate(0,0)"/>
<path d="M0 0 C0 0.66 0 1.32 0 2 C0.87205078 2.40025391 0.87205078 2.40025391 1.76171875 2.80859375 C13.09627965 8.84182425 20.83668119 20.86080939 24.56860352 32.82250977 C26.48333773 40.10906618 26.33091653 47.4493387 26.3125 54.9375 C26.32861328 56.24396484 26.34472656 57.55042969 26.36132812 58.89648438 C26.36710273 70.37062934 24.94558022 79.39377604 17 88 C6.93975904 98 6.93975904 98 0 98 C0 98.66 0 99.32 0 100 C-30.3873115 100.09133295 -60.77460877 100.16208126 -91.16202625 100.20426132 C-94.75295587 100.20926389 -98.34388523 100.21444121 -101.93481445 100.21972656 C-103.00710765 100.22130043 -103.00710765 100.22130043 -104.10106333 100.22290608 C-115.66229035 100.24029142 -127.22343747 100.27181872 -138.78461716 100.30861118 C-150.65544556 100.34607282 -162.52623224 100.36824687 -174.39711732 100.37635398 C-181.06145885 100.38134061 -187.72565496 100.39379195 -194.38994789 100.42292023 C-200.66652216 100.45013081 -206.94284142 100.45843343 -213.21946907 100.45243073 C-215.51920712 100.45352842 -217.81895397 100.46144834 -220.1186409 100.4768219 C-235.98985637 100.57769073 -248.6379801 100.13605134 -260.6875 88.5625 C-267 82.04051438 -267 82.04051438 -267 77 C-267.66 77 -268.32 77 -269 77 C-270.15082586 69.74160981 -270.22130542 62.64755275 -270.25 55.3125 C-270.270625 54.01376953 -270.29125 52.71503906 -270.3125 51.37695312 C-270.38023318 34.51985687 -265.99129084 21.92312488 -254.5390625 9.484375 C-253.70117188 8.66453125 -252.86328125 7.8446875 -252 7 C-251.43611572 6.44634766 -250.87223145 5.89269531 -250.29125977 5.32226562 C-245.22341174 0.5925298 -240.02726354 -2.27364887 -233.6875 -5 C-232.23573364 -5.63772339 -232.23573364 -5.63772339 -230.75463867 -6.28833008 C-227.8462292 -7.55044307 -224.92729902 -8.78241036 -222 -10 C-221.19594727 -10.33563965 -220.39189453 -10.6712793 -219.56347656 -11.01708984 C-148.69961078 -40.05940839 -67.94783479 -33.42577763 0 0 Z " fill="#FEFEFE" transform="translate(378,304)"/>
<path d="M0 0 C0 0.66 0 1.32 0 2 C1.0725 2.061875 2.145 2.12375 3.25 2.1875 C18.7736203 4.18613189 32.56817496 14.92736285 43 26 C45.65900247 29.51504823 47.89693182 33.13059084 50 37 C50.59554687 38.06541016 50.59554687 38.06541016 51.203125 39.15234375 C60.32159755 56.33454016 61.90750636 77.6561455 56.32421875 96.21484375 C52.8197996 106.70655213 47.41054276 115.77266395 40 124 C39.47019531 124.61101562 38.94039063 125.22203125 38.39453125 125.8515625 C25.75386134 139.52221292 7.89288598 147.24742288 -10.55078125 148.3203125 C-29.92407724 149.00670557 -49.06232729 143.8975506 -63.5625 130.5 C-65.42148183 128.70419044 -67.20983852 126.86692185 -69 125 C-69.68707031 124.29746094 -70.37414062 123.59492188 -71.08203125 122.87109375 C-83.50602922 109.47266456 -89.40891436 91.88885508 -89.375 73.8125 C-89.37338867 72.90338867 -89.37177734 71.99427734 -89.37011719 71.05761719 C-89.16658591 59.72770921 -86.31700976 49.03702193 -81 39 C-80.58105469 38.20335937 -80.16210938 37.40671875 -79.73046875 36.5859375 C-69.98742969 19.24708562 -54.30104381 8.26910945 -35.8125 1.90234375 C-24.1816244 -1.16216391 -11.92336323 -0.27385817 0 0 Z " fill="#FEFEFE" transform="translate(271,108)"/>
<path d="M0 0 C0.66 0.33 1.32 0.66 2 1 C-0.11905463 3.17277714 -2.24472878 5.33826908 -4.375 7.5 C-4.97828125 8.12003906 -5.5815625 8.74007812 -6.203125 9.37890625 C-6.78320312 9.96542969 -7.36328125 10.55195313 -7.9609375 11.15625 C-8.49509277 11.70087891 -9.02924805 12.24550781 -9.57958984 12.80664062 C-11 14 -11 14 -13 14 C-11.43416404 9.96278439 -8.55826135 7.52929418 -5.375 4.75 C-4.859375 4.29109375 -4.34375 3.8321875 -3.8125 3.359375 C-2.5465398 2.23407704 -1.27392058 1.11627823 0 0 Z " fill="#D7E6DA" transform="translate(211,122)"/>
</svg>
