<?xml version="1.0" encoding="UTF-8"?>
<svg version="1.1" xmlns="http://www.w3.org/2000/svg" width="512" height="512">
<path d="M0 0 C168.96 0 337.92 0 512 0 C512 168.96 512 337.92 512 512 C343.04 512 174.08 512 0 512 C0 343.04 0 174.08 0 0 Z " fill="#106D20" transform="translate(0,0)"/>
<path d="M0 0 C0.98484375 0.00902344 1.9696875 0.01804688 2.984375 0.02734375 C4.10585938 0.04474609 4.10585938 0.04474609 5.25 0.0625 C5.25 0.7225 5.25 1.3825 5.25 2.0625 C6.38066895 2.22576782 6.38066895 2.22576782 7.53417969 2.39233398 C10.4260901 3.10595265 11.54553217 3.7953693 13.703125 5.78515625 C14.73276367 6.73285889 14.73276367 6.73285889 15.78320312 7.69970703 C16.59724609 8.47942871 17.41128906 9.25915039 18.25 10.0625 C18.74266357 10.53355164 19.23532715 11.00460327 19.74291992 11.4899292 C23.25176018 14.85564082 26.72008873 18.26017075 30.16943359 21.68676758 C31.39253907 22.89829124 32.62011432 24.10531855 33.85205078 25.30786133 C35.65616086 27.06910762 37.44646865 28.84341753 39.234375 30.62109375 C39.77922546 31.14843613 40.32407593 31.6757785 40.88543701 32.21910095 C46.08194399 37.44516013 49.82296982 43.37829111 49.8125 50.9375 C49.83441406 51.86304688 49.85632813 52.78859375 49.87890625 53.7421875 C47.72986134 65.0880768 39.63077396 72.37059065 31.7487793 80.13134766 C30.46619506 81.41251944 29.18471495 82.69479737 27.9042511 83.97808838 C24.44468581 87.43908147 20.969982 90.88449802 17.4922483 94.32722139 C13.85310037 97.93499983 10.22821498 101.55705212 6.60176086 105.17758179 C-0.25878083 112.02261617 -7.13196179 118.85481061 -14.00983256 125.68242776 C-21.84315938 133.4597643 -29.66220301 141.25139387 -37.48010886 149.04422688 C-53.55428558 165.06621595 -69.64622047 181.07026902 -85.75 197.0625 C-89.73689282 195.21877446 -92.47280773 192.60835748 -95.52832031 189.51123047 C-96.37775711 188.66223175 -96.37775711 188.66223175 -97.24435425 187.79608154 C-99.11039238 185.9286528 -100.96925096 184.05424538 -102.828125 182.1796875 C-104.12234554 180.88173589 -105.41700905 179.58422584 -106.71209717 178.28713989 C-110.11625646 174.87535164 -113.51436634 171.45759948 -116.91125488 168.03857422 C-120.37991407 164.5494408 -123.85425583 161.06597613 -127.328125 157.58203125 C-134.14099302 150.74772632 -140.9474842 143.90710797 -147.75 137.0625 C-146.15407521 133.17443329 -143.64994894 130.70562152 -140.70394897 127.74902344 C-140.18518995 127.2257333 -139.66643092 126.70244316 -139.13195193 126.16329575 C-137.39268024 124.41136556 -135.64633923 122.6666604 -133.89990234 120.921875 C-132.65111843 119.66710666 -131.40274591 118.41192878 -130.15475464 117.15637207 C-126.76264566 113.7465848 -123.36406166 110.34332286 -119.96374083 106.94172668 C-117.83885512 104.81541958 -115.71539985 102.68769484 -113.59245682 100.55944824 C-106.18372972 93.13221305 -98.76984743 85.710169 -91.35107422 78.29296875 C-84.44032504 71.38342037 -77.54079862 64.46280555 -70.64646947 57.53687668 C-64.72399108 51.58822438 -58.79380401 45.64733176 -52.85758555 39.7123909 C-49.31364439 36.16895915 -45.77286314 32.62250634 -42.23978806 29.0682373 C-38.91457397 25.72362298 -35.57984226 22.38879727 -32.23765945 19.06114197 C-31.01520058 17.84077022 -29.79612378 16.61699936 -28.58078003 15.38954163 C-20.07123293 6.8007214 -12.7670803 -0.15198905 0 0 Z " fill="#FDFEFD" transform="translate(370.75,143.9375)"/>
<path d="M0 0 C16.86663325 2.59666615 37.44641359 7.8062378 48.53515625 21.6875 C55.82340608 33.19321706 57.84489616 46.31165962 55.31640625 59.58984375 C53.39582102 66.41947671 50.88278129 71.83209279 46 77 C45.52175781 77.52980469 45.04351562 78.05960937 44.55078125 78.60546875 C34.02890628 88.91531601 14.7729339 93.21293968 0.375 93.25 C-1.08442313 93.18864287 -2.54385839 93.11546497 -4 93 C-4 93.66 -4 94.32 -4 95 C-5.22074219 95.15855469 -6.44148438 95.31710937 -7.69921875 95.48046875 C-20.41166039 97.23846221 -32.99055026 99.29613066 -43 108 C-47.08360126 113.58092172 -47.61017269 119.25481822 -47 126 C-45.74009858 131.55547083 -43.59034437 135.48399154 -39 139 C-32.62597295 142.48814866 -25.82772314 143.78910661 -18.7097168 144.78564453 C-13.93182917 145.53087926 -10.79102476 147.01892712 -7 150 C-3.45269665 154.96622469 -3.15972265 160.0993857 -4 166 C-5.29504271 169.73195104 -7.23757846 172.34347034 -10.25 174.9375 C-16.55423107 177.37322564 -23.36457193 175.78409303 -29.75 174.3125 C-30.5342334 174.13388428 -31.3184668 173.95526855 -32.12646484 173.77124023 C-47.83555288 170.02354207 -62.89638143 162.51178229 -71.68359375 148.45703125 C-75.28606818 141.73312498 -77.67136259 134.65067894 -78 127 C-78.06316406 125.96101563 -78.12632813 124.92203125 -78.19140625 123.8515625 C-78.63990302 110.74388264 -75.37222065 99.25010192 -67 89 C-46.79957413 68.53334117 -17.43824081 64.09752963 10 63 C10 62.34 10 61.68 10 61 C10.66386719 60.84144531 11.32773438 60.68289062 12.01171875 60.51953125 C17.5047167 59.06809675 21.70446618 57.94330073 25 53 C25.80189232 49.1241871 25.37167629 45.99888002 24 42.3125 C19.45315292 37.05520806 13.66015205 34.52628485 7 33 C7 32.34 7 31.68 7 31 C5.741875 30.896875 4.48375 30.79375 3.1875 30.6875 C-11.43387976 29.00130613 -11.43387976 29.00130613 -16.125 24.5 C-19.6750104 19.7666528 -19.65830333 14.71122616 -19 9 C-17.1875 5.5625 -17.1875 5.5625 -15 3 C-14.56429687 2.46117187 -14.12859375 1.92234375 -13.6796875 1.3671875 C-9.96980754 -1.65248223 -4.48338485 -0.42474172 0 0 Z " fill="#FCFDFC" transform="translate(170,176)"/>
<path d="M0 0 C6.04089238 2.71116303 10.06377171 7.8723513 14.3125 12.8125 C20.36441553 19.81426775 26.98489329 26.20149101 34 32.2265625 C40.51026637 37.99933776 46.36962591 44.38034109 52 51 C53.03713645 52.21110011 54.07468434 53.42184795 55.11254883 54.63232422 C55.65317459 55.26290741 56.19380035 55.8934906 56.75080872 56.54318237 C57.16304184 57.02393219 57.57527496 57.50468201 58 58 C51.63225921 59.38872974 45.26422629 60.77611391 38.89599609 62.16259766 C36.73316941 62.63364768 34.57040785 63.1049968 32.40771484 63.57666016 C29.28500493 64.25763839 26.1620563 64.93751255 23.0390625 65.6171875 C22.08448151 65.82560272 21.12990051 66.03401794 20.14639282 66.24874878 C17.43223685 66.83882143 14.71663954 67.42147656 12 68 C11.08377869 68.19708557 10.16755737 68.39417114 9.22357178 68.597229 C8.34074524 68.78186707 7.4579187 68.96650513 6.54833984 69.15673828 C5.76405609 69.32231232 4.97977234 69.48788635 4.17172241 69.65847778 C-0.55420325 70.40167065 -3.86413332 69.75724445 -7.8125 67.125 C-11.84683754 63.20592925 -11.84683754 63.20592925 -12.24914551 60.03834534 C-12.17972531 54.68729223 -11.58221684 49.69438093 -10.46875 44.46484375 C-10.31337769 43.70071671 -10.15800537 42.93658966 -9.9979248 42.14930725 C-9.50682353 39.74359839 -9.00365557 37.34060828 -8.5 34.9375 C-8.16195399 33.29248322 -7.82470727 31.64730198 -7.48828125 30.00195312 C-6.66806757 25.99934432 -5.8370333 21.99912377 -5 18 C-4.34 18 -3.68 18 -3 18 C-2.95101562 17.3709375 -2.90203125 16.741875 -2.8515625 16.09375 C-2.36564801 10.53086686 -1.49446374 5.38006948 0 0 Z " fill="#FBFCFB" transform="translate(208,298)"/>
<path d="M0 0 C0.66 0.33 1.32 0.66 2 1 C-1.63 4.63 -5.26 8.26 -9 12 C-9.66 11.67 -10.32 11.34 -11 11 C-7.6189962 6.86378916 -4.33409466 3.18683431 0 0 Z " fill="#D3E4D6" transform="translate(111,258)"/>
</svg>
