<?xml version="1.0" encoding="UTF-8"?>
<svg version="1.1" xmlns="http://www.w3.org/2000/svg" width="512" height="512">
<path d="M0 0 C168.96 0 337.92 0 512 0 C512 168.96 512 337.92 512 512 C343.04 512 174.08 512 0 512 C0 343.04 0 174.08 0 0 Z " fill="#106D20" transform="translate(0,0)"/>
<path d="M0 0 C0.92100998 -0.00671722 1.84201996 -0.01343445 2.79093933 -0.02035522 C5.83244238 -0.03933457 8.87372463 -0.04325982 11.9152832 -0.04541016 C14.03652537 -0.05183959 16.15776665 -0.05856806 18.27900696 -0.06558228 C22.72671564 -0.07755594 27.17434665 -0.08126315 31.62207031 -0.08007812 C37.30351195 -0.07987527 42.98445149 -0.10714265 48.66577435 -0.14162254 C53.04887651 -0.16393511 57.43185885 -0.16791428 61.81501198 -0.16685867 C63.90845273 -0.1692094 66.00189706 -0.17800298 68.0952816 -0.19352341 C71.03392307 -0.21326538 73.9714951 -0.20731243 76.91015625 -0.1953125 C77.76401917 -0.20655151 78.61788208 -0.21779053 79.49761963 -0.22937012 C87.7704762 -0.14414042 95.51707973 2.38188606 101.59106445 8.16552734 C102.3284082 8.86291016 103.06575195 9.56029297 103.82543945 10.27880859 C106.29824459 12.82579789 108.5123043 15.55939331 110.77856445 18.29052734 C112.7170939 20.07381521 114.70003018 21.78700155 116.71606445 23.48193359 C118.77856445 25.29052734 118.77856445 25.29052734 120.63606262 27.86532593 C125.48945341 31.61089263 130.15239031 30.96970527 136.12109375 30.90234375 C138.00004082 30.91084099 138.00004082 30.91084099 139.91694641 30.91950989 C142.63763328 30.92838022 145.35654629 30.92824218 148.07703209 30.91267776 C152.3859909 30.88830784 156.69440339 30.89987917 161.00337219 30.91635132 C168.6030133 30.94083692 176.20240526 30.9350538 183.80206299 30.92254639 C195.22365248 30.9039747 206.64519227 30.90894535 218.06674701 30.94258058 C222.34172835 30.95403579 226.61630866 30.94973515 230.89126718 30.93256021 C232.91644129 30.92653182 234.94148144 30.92729897 236.96665955 30.93095398 C239.42442508 30.935163 241.88224341 30.92883291 244.3399353 30.90934753 C255.1780488 30.96167203 264.41736724 33.12157492 272.77856445 40.29052734 C278.01454046 45.95617314 281.92164468 51.04299852 281.82910156 58.96459961 C281.82180527 59.77478043 281.81450897 60.58496124 281.80699158 61.41969299 C281.79761063 62.03706833 281.78822968 62.65444366 281.77856445 63.29052734 C280.5854962 63.2919939 279.39242794 63.29346046 278.1632061 63.29497147 C249.79635142 63.33072898 221.42958797 63.38705006 193.06282782 63.4684483 C189.56589279 63.47846489 186.0689573 63.48830917 182.57202148 63.49804688 C181.87588997 63.49998825 181.17975846 63.50192962 180.46253206 63.50392982 C169.21377214 63.53489015 157.96503259 63.55191376 146.71623813 63.56372157 C135.16060153 63.57616415 123.60508687 63.60402988 112.04951489 63.64514041 C105.56451745 63.66772852 99.07967146 63.6834396 92.5946312 63.68241119 C86.48295037 63.68166304 80.37160401 63.69967691 74.26000977 63.73169518 C72.02445121 63.74017036 69.78885504 63.74196042 67.55328751 63.73633003 C46.2180679 63.68977941 28.95539235 67.24746003 12.77856445 82.29052734 C5.1196708 90.41223914 -0.35500721 100.6210382 -0.34169006 111.95393372 C-0.34306473 112.86112152 -0.34443939 113.76830933 -0.34585571 114.70298767 C-0.34226044 115.68554031 -0.33866516 116.66809296 -0.33496094 117.68041992 C-0.33510696 118.7247821 -0.33525299 119.76914429 -0.33540344 120.84515381 C-0.33470764 124.29180998 -0.32693073 127.73841188 -0.3190918 131.18505859 C-0.31722644 133.57687857 -0.31580309 135.96869892 -0.31480408 138.36051941 C-0.31098818 144.65201881 -0.30116578 150.94349508 -0.2901001 157.23498535 C-0.27986606 163.65649096 -0.27530218 170.07800031 -0.27026367 176.49951172 C-0.25954271 189.09652679 -0.24266995 201.69352583 -0.22143555 214.29052734 C1.45121982 208.57975672 3.12357368 202.86889792 4.7956543 197.15795898 C5.36393178 195.2171798 5.93229009 193.27642427 6.50073242 191.33569336 C7.32012091 188.53814894 8.13921391 185.74051813 8.95825195 182.94287109 C9.21041473 182.08217514 9.46257751 181.22147919 9.72238159 180.33470154 C11.09120393 175.65796366 12.4457083 170.97764596 13.77856445 166.29052734 C14.43856445 166.29052734 15.09856445 166.29052734 15.77856445 166.29052734 C15.88797363 165.34467773 15.99738281 164.39882813 16.11010742 163.42431641 C16.81041655 158.55311802 18.14201729 153.8805252 19.47387695 149.14990234 C19.74440887 148.18707336 20.0149408 147.22424438 20.29367065 146.23223877 C20.86757364 144.20091696 21.44430085 142.1703912 22.02368164 140.140625 C22.89560861 137.06855822 23.74336478 133.99044659 24.59106445 130.91162109 C31.65596383 105.80445206 31.65596383 105.80445206 43.17700195 98.50927734 C50.06611489 95.28194516 56.28263532 93.84546839 63.87313843 93.90284729 C64.74286368 93.89746175 65.61258893 93.89207621 66.5086695 93.88652748 C69.39874939 93.87231524 72.28836688 93.87933491 75.1784668 93.88647461 C77.26044582 93.8807675 79.34242171 93.87380192 81.4243927 93.86567688 C87.06289356 93.8477675 92.70123861 93.8489098 98.33975935 93.85461926 C103.05385313 93.85771452 107.76791713 93.85161486 112.48200667 93.84558052 C123.60692624 93.83154399 134.731769 93.83308917 145.85668945 93.84448242 C157.3180339 93.85596114 168.77914429 93.84188999 180.24045789 93.81508595 C190.09552351 93.79290476 199.95051578 93.78629709 209.80560458 93.79216236 C215.68508995 93.79552752 221.56442533 93.79314609 227.44388962 93.77591133 C232.97455048 93.76040597 238.50486555 93.76443779 244.03551292 93.78321648 C246.05949654 93.78689248 248.08350598 93.78382289 250.10746574 93.77333069 C262.69740692 93.71307234 274.59156597 93.76187745 284.77856445 102.29052734 C291.72176259 109.81086789 295.20564995 118.02011033 295.03710938 128.23916626 C294.57672083 133.67269663 293.04765842 138.7488788 291.49731445 143.95849609 C291.16437378 145.11932205 290.83143311 146.28014801 290.48840332 147.47615051 C289.43204194 151.14753231 288.35568397 154.81268841 287.27856445 158.47802734 C286.55457383 160.98089695 285.83190422 163.48414908 285.1105957 165.98779297 C283.34850192 172.0932105 281.56999662 178.19365772 279.77856445 184.29052734 C279.11856445 184.29052734 278.45856445 184.29052734 277.77856445 184.29052734 C277.55813477 185.54607422 277.33770508 186.80162109 277.1105957 188.09521484 C275.56744503 195.78793612 273.36857262 203.30506327 271.20263672 210.84082031 C270.46670189 213.41329916 269.74856553 215.99035106 269.03051758 218.56787109 C268.55569616 220.22833943 268.07982009 221.88850663 267.6027832 223.54833984 C267.28998665 224.68615402 267.28998665 224.68615402 266.97087097 225.84695435 C263.8837053 236.37751181 257.3576266 244.79750378 247.77856445 250.29052734 C242.3491393 252.59101432 237.38713113 252.57678898 231.59539795 252.55795288 C230.57235542 252.56248399 229.54931288 252.56701511 228.49526906 252.57168353 C225.06849604 252.58433993 221.6418817 252.58270633 218.21508789 252.58105469 C215.75755102 252.58703918 213.30001603 252.59384455 210.84248352 252.60140991 C204.86016272 252.61724982 198.87790425 252.6235187 192.89556828 252.62463467 C188.03070733 252.62558605 183.16585935 252.62970082 178.3010025 252.63603592 C164.49738181 252.65364439 150.69379218 252.66287552 136.89016017 252.66137497 C136.14644394 252.66129506 135.4027277 252.66121515 134.63647461 252.66113281 C133.51953232 252.66101017 133.51953232 252.66101017 132.38002554 252.66088505 C120.31733731 252.66007247 108.25477405 252.67920401 96.19212195 252.70740955 C83.79563878 252.73616606 71.3992165 252.74994829 59.00269914 252.74822199 C52.04729576 252.747559 45.09202335 252.75301126 38.13665009 252.77457809 C31.59324831 252.79473798 25.05007539 252.79408791 18.5066433 252.77954483 C16.10812412 252.77745501 13.70958767 252.78216789 11.3110981 252.79426575 C8.03029713 252.80973908 4.75044655 252.80039529 1.46966553 252.78500366 C0.52625864 252.79529079 -0.41714825 252.80557791 -1.38914323 252.81617677 C-9.61412106 252.73122858 -16.91015338 250.73494935 -23.03393555 245.04052734 C-30.1251516 237.23015495 -33.53212564 229.60733406 -33.48886108 218.96759033 C-33.4933922 218.14464186 -33.49792331 217.3216934 -33.50259173 216.4738071 C-33.51522272 213.72417973 -33.51361619 210.97475077 -33.51196289 208.22509766 C-33.517949 206.25031276 -33.52475474 204.27553021 -33.53231812 202.30075073 C-33.54997811 196.94108886 -33.55467353 191.58149086 -33.55594969 186.22180271 C-33.55737198 182.87115631 -33.5616431 179.52052611 -33.56694412 176.16988373 C-33.58544526 164.47441071 -33.59361473 152.77898326 -33.59204102 141.08349609 C-33.59083999 130.19194117 -33.61193451 119.30058454 -33.64352834 108.40907979 C-33.6697066 99.05005948 -33.68040764 89.69110386 -33.6791302 80.33204722 C-33.67862097 74.74596482 -33.68428251 69.16005861 -33.7054863 63.57401276 C-33.72489435 58.31754318 -33.72497545 53.06141738 -33.71045303 47.80493546 C-33.70836695 45.88050711 -33.71305382 43.95605711 -33.72517395 42.0316658 C-33.805053 28.46525826 -33.06485764 18.48412926 -23.30737305 8.20068359 C-20.42780492 5.5637757 -17.75643957 3.95798207 -14.22143555 2.29052734 C-13.51830734 1.93429291 -12.81517914 1.57805847 -12.09074402 1.21102905 C-8.04048307 -0.08833355 -4.2291922 -0.00443668 0 0 Z " fill="#FDFEFD" transform="translate(125.221435546875,129.70947265625)"/>
<path d="M0 0 C0.66 0.33 1.32 0.66 2 1 C-2.29 5.29 -6.58 9.58 -11 14 C-11 10.30159372 -10.17133056 9.68584567 -7.75 7 C-7.14671875 6.319375 -6.5434375 5.63875 -5.921875 4.9375 C-4.06233388 3.06284066 -2.15205789 1.52358081 0 0 Z " fill="#D8E7DB" transform="translate(108,133)"/>
</svg>
