<?xml version="1.0" encoding="UTF-8"?>
<svg version="1.1" xmlns="http://www.w3.org/2000/svg" width="512" height="512">
<path d="M0 0 C168.96 0 337.92 0 512 0 C512 168.96 512 337.92 512 512 C343.04 512 174.08 512 0 512 C0 343.04 0 174.08 0 0 Z " fill="#106D20" transform="translate(0,0)"/>
<path d="M0 0 C5.36845176 2.99610736 8.52478518 7.7372954 12.0625 12.625 C13.10308375 14.04116094 14.14484225 15.45645911 15.1875 16.87109375 C16.96339106 19.28180902 18.7377036 21.69358014 20.50634766 24.10961914 C24.59978502 29.68975743 28.79021912 35.18089007 33.0625 40.625 C43.82593585 54.36030581 54.02495564 68.51417453 64.22265625 82.671875 C64.70234863 83.33638672 65.18204102 84.00089844 65.67626953 84.68554688 C66.58381791 85.95528346 67.48109462 87.23244018 68.36669922 88.51757812 C70.29265831 91.29743656 72.13402291 93.696185 74.54296875 96.09375 C77.61530264 99.18037382 79.92921199 102.5361633 82.375 106.125 C87.0302783 112.83364617 91.84870203 119.39146223 96.8125 125.875 C97.47765625 126.74455322 98.1428125 127.61410645 98.828125 128.51000977 C101.64192485 132.18160161 104.46247333 135.84789903 107.28955078 139.50927734 C108.77404773 141.4321189 110.25666654 143.35641206 111.73730469 145.28222656 C113.12803258 147.09099875 114.52299807 148.89652327 115.92285156 150.69824219 C124.83486316 162.29981228 124.83486316 162.29981228 124.5390625 170.24609375 C123.63852032 174.74142317 121.32450079 178.44598553 118.0625 181.625 C111.72566036 185.17044676 105.90605791 185.04738597 98.75804138 185.00595093 C97.51897744 185.0106309 96.27991349 185.01531087 95.00330216 185.02013266 C91.57584938 185.03001088 88.1488915 185.02647952 84.72146904 185.01717401 C81.02067579 185.01037765 77.31992534 185.02086759 73.61914062 185.02911377 C66.37428452 185.04244666 59.12952171 185.03957547 51.88466197 185.03087585 C45.99671431 185.02409848 40.10879279 185.02318281 34.22084236 185.0264473 C32.96346183 185.02713684 32.96346183 185.02713684 31.68067967 185.02784032 C29.97775379 185.02879951 28.27482791 185.02977215 26.57190204 185.0307581 C10.60767594 185.03931055 -5.35649845 185.02947985 -21.32071608 185.013357 C-35.01844272 184.99995149 -48.71609309 185.0022841 -62.41381836 185.01611328 C-78.32278367 185.03216742 -94.23170369 185.03848918 -110.14067596 185.02927649 C-111.83700334 185.02832085 -113.53333073 185.02737773 -115.22965813 185.0264473 C-116.06427435 185.02598447 -116.89889058 185.02552164 -117.7587982 185.02504479 C-123.64011382 185.02245459 -129.5214007 185.02682651 -135.40271187 185.03388596 C-142.56935482 185.04229919 -149.7358992 185.04002445 -156.90253086 185.02404372 C-160.55898413 185.01615898 -164.21527303 185.01307283 -167.87172508 185.02299118 C-171.83458471 185.03357815 -175.79717511 185.02093757 -179.76002502 185.00595093 C-180.91673047 185.01264309 -182.07343592 185.01933526 -183.26519305 185.02623022 C-188.8784855 184.98492252 -193.14476278 184.90511322 -197.9375 181.625 C-202.38697621 176.80473411 -204.58485675 172.64608301 -204.3515625 166.08203125 C-202.61131534 155.75547027 -192.22971673 146.15042257 -185.91992188 138.15039062 C-182.51610299 133.81429425 -179.15909195 129.44285176 -175.8125 125.0625 C-174.806427 123.74572266 -174.806427 123.74572266 -173.7800293 122.40234375 C-169.02804507 116.14592175 -164.43246527 109.79514739 -160.00537109 103.30444336 C-157.67607648 99.92494406 -155.24879423 96.78035145 -152.51171875 93.71875 C-148.12615691 88.80613195 -144.42875526 83.45965227 -140.65625 78.07226562 C-132.54211677 66.62900835 -132.54211677 66.62900835 -126.9375 64.625 C-124.60546875 64.2890625 -124.60546875 64.2890625 -122.125 64.25 C-121.31417969 64.22164063 -120.50335938 64.19328125 -119.66796875 64.1640625 C-112.99342814 65.29080898 -109.23591903 68.95876481 -105.41162109 74.20776367 C-104.92516113 74.90232666 -104.43870117 75.59688965 -103.9375 76.3125 C-102.88853303 77.76078778 -101.83905774 79.20870754 -100.7890625 80.65625 C-100.29438477 81.3471875 -99.79970703 82.038125 -99.29003906 82.75 C-97.68202963 84.97915387 -96.01270157 87.15300227 -94.3125 89.3125 C-93.78011719 89.993125 -93.24773437 90.67375 -92.69921875 91.375 C-92.11785156 92.1175 -91.53648437 92.86 -90.9375 93.625 C-85.80396511 100.2015217 -80.75504681 106.81251775 -75.9375 113.625 C-71.91061377 119.31788547 -67.74128023 124.8766957 -63.453125 130.375 C-61.70152773 132.6227461 -59.98905554 134.89470752 -58.296875 137.1875 C-57.85988281 137.77329834 -57.42289063 138.35909668 -56.97265625 138.96264648 C-55.76255275 140.58676906 -54.56068517 142.21701879 -53.359375 143.84765625 C-50.19951255 147.47130497 -47.16770584 150.16264025 -42.375 151.15625 C-36.7473214 151.08410027 -33.28059253 150.55446467 -28.9375 146.625 C-25.73134033 143.16572246 -24.56127752 140.18032977 -24.125 135.5625 C-24.42846614 128.50691214 -28.31589799 123.85416305 -32.49560547 118.50146484 C-34.5920942 115.77311868 -36.56866617 112.96325937 -38.56103516 110.15844727 C-43.50186122 103.22185972 -48.57968296 96.3918771 -53.75 89.625 C-54.28866699 88.91859375 -54.82733398 88.2121875 -55.38232422 87.484375 C-57.71785431 84.44047524 -60.07107272 81.43052789 -62.56640625 78.515625 C-63.30761719 77.64421875 -64.04882812 76.7728125 -64.8125 75.875 C-65.44929687 75.15828125 -66.08609375 74.4415625 -66.7421875 73.703125 C-67.9375 71.625 -67.9375 71.625 -67.68334961 69.25244141 C-66.89408394 66.4720561 -65.92366091 64.81092099 -64.19921875 62.5078125 C-63.63235352 61.74364014 -63.06548828 60.97946777 -62.48144531 60.19213867 C-61.86881836 59.38623291 -61.25619141 58.58032715 -60.625 57.75 C-59.99561523 56.90864502 -59.36623047 56.06729004 -58.71777344 55.20043945 C-54.32870361 49.36620157 -49.80388586 43.6507316 -45.20239258 37.98339844 C-41.92117708 33.92151588 -38.82023956 29.76781044 -35.8125 25.5 C-13.7451282 -5.7632132 -13.7451282 -5.7632132 0 0 Z " fill="#FDFDFD" transform="translate(295.9375,164.375)"/>
</svg>
