<?xml version="1.0" encoding="UTF-8"?>
<svg version="1.1" xmlns="http://www.w3.org/2000/svg" width="512" height="512">
<path d="M0 0 C168.96 0 337.92 0 512 0 C512 168.96 512 337.92 512 512 C343.04 512 174.08 512 0 512 C0 343.04 0 174.08 0 0 Z " fill="#106D20" transform="translate(0,0)"/>
<path d="M0 0 C35.2200744 -0.02287662 70.44014729 -0.04050345 105.66022755 -0.05106533 C109.81596552 -0.05231607 113.97170346 -0.05361039 118.12744141 -0.05493164 C119.36846798 -0.05532511 119.36846798 -0.05532511 120.6345658 -0.05572652 C134.04020842 -0.06008074 147.44584676 -0.06796693 160.85148683 -0.0771528 C174.60149677 -0.08649623 188.35150446 -0.09205708 202.10151744 -0.09408849 C210.58960731 -0.09546228 219.0776851 -0.09980513 227.56577125 -0.10791647 C233.38219107 -0.11319241 239.19860462 -0.11480235 245.01502666 -0.11350138 C248.37342712 -0.11285933 251.73178931 -0.11440289 255.09018898 -0.11920547 C258.72780667 -0.1241539 262.36537191 -0.12299396 266.00299072 -0.12025452 C267.06913203 -0.12316736 268.13527335 -0.1260802 269.23372197 -0.12908131 C270.20658674 -0.12709026 271.17945151 -0.12509921 272.18179703 -0.12304783 C273.0217384 -0.12342755 273.86167977 -0.12380727 274.72707391 -0.1241985 C276.94499641 -0.00300554 278.87141945 0.3831634 281 1 C281 1.66 281 2.32 281 3 C281.66 3.04125 282.32 3.0825 283 3.125 C290.4511914 5.29826416 296.22211228 11.38033833 300 18 C304.0244127 25.9678033 303.43000747 34.27722155 303.40405273 42.98168945 C303.40976069 44.70884644 303.41672659 46.43599966 303.42485046 48.16314697 C303.44275238 52.83893721 303.44161878 57.51453946 303.43590808 62.19035363 C303.43281118 66.10163852 303.43891442 70.01288756 303.44494683 73.92416734 C303.45898142 83.15675078 303.45744032 92.38924167 303.44604492 101.62182617 C303.43457137 111.1274158 303.44862899 120.63272303 303.4754414 130.13827544 C303.49763977 138.31605582 303.50422627 146.49374783 303.49836498 154.67155617 C303.4950033 159.54837729 303.49735762 164.42501752 303.51461601 169.30181313 C303.53014856 173.89105518 303.52606001 178.47988106 303.50731087 183.06910706 C303.50364204 184.74638989 303.50668329 186.42370398 303.51719666 188.10095787 C303.59169246 200.97602537 302.36355942 211.46690083 293.09375 221.1171875 C289.45698291 224.38756387 286.05764312 227 281 227 C281 227.66 281 228.32 281 229 C277.99924299 229.86754681 275.32628876 230.12753993 272.20693684 230.13422108 C270.75596512 230.14090784 270.75596512 230.14090784 269.27568084 230.14772969 C267.68567749 230.14745315 267.68567749 230.14745315 266.06355286 230.14717102 C264.37123544 230.15268605 264.37123544 230.15268605 262.64472979 230.1583125 C258.85014407 230.16935843 255.05558573 230.17319473 251.26098633 230.17700195 C248.54596726 230.18273383 245.83095229 230.18989978 243.11593628 230.19691467 C234.95879916 230.21666555 226.80166082 230.22674326 218.64450577 230.23564246 C214.80184364 230.24002736 210.95918288 230.24539363 207.11652184 230.25063133 C194.34063026 230.26764175 181.56473954 230.28213579 168.78883839 230.28938007 C165.47437857 230.29128992 162.15991877 230.29321026 158.84545898 230.29516602 C158.02168149 230.29564976 157.197904 230.2961335 156.34916355 230.2966319 C143.00531114 230.30493175 129.66154838 230.33026872 116.31773511 230.36274669 C102.61390284 230.39582868 88.91011611 230.41382984 75.20624369 230.41702431 C67.51363259 230.41918829 59.82115225 230.42792047 52.12858009 230.45348549 C45.57715234 230.47520804 39.02588713 230.48323529 32.47442744 230.47351871 C29.13341755 230.46897842 25.79301444 230.47303196 22.45200539 230.49028015 C18.82484268 230.50795709 15.19852852 230.50091234 11.57136536 230.48774719 C9.99809242 230.50420106 9.99809242 230.50420106 8.39303619 230.52098733 C-2.18157222 230.42842928 -9.13050788 226.69194048 -16.76171875 219.51171875 C-23.01590874 212.49349158 -25.11668323 205.05965806 -25.14717102 195.8666687 C-25.15084771 195.14751789 -25.1545244 194.42836708 -25.1583125 193.68742383 C-25.16932734 191.27712295 -25.17318946 188.86686522 -25.17700195 186.45654297 C-25.18326834 184.72835657 -25.18991529 183.00017151 -25.19691467 181.27198792 C-25.21793916 175.59539729 -25.22831653 169.91880645 -25.23828125 164.2421875 C-25.24232961 162.28601187 -25.24644655 160.32983638 -25.25063133 158.37366104 C-25.26968058 149.18141498 -25.28391137 139.98917693 -25.2922433 130.79691494 C-25.3020108 120.19660573 -25.32831874 109.59650561 -25.36874419 98.99627006 C-25.39893854 90.79652383 -25.41371538 82.59683741 -25.41702431 74.39703667 C-25.41937128 69.50283599 -25.42828553 64.60885875 -25.45348549 59.71471786 C-25.47682889 55.10668962 -25.48097432 50.49903092 -25.47072411 45.89095879 C-25.47023013 44.20518321 -25.47650947 42.51938906 -25.49028015 40.83366966 C-25.59438798 27.32725625 -23.86938907 18.16580434 -14.23828125 8.140625 C-7.97010989 2.14593407 -7.97010989 2.14593407 -2.625 1.75 C-1.325625 1.87375 -1.325625 1.87375 0 2 C0 1.34 0 0.68 0 0 Z " fill="#126E22" transform="translate(117,141)"/>
<path d="M0 0 C35.2200744 -0.02287662 70.44014729 -0.04050345 105.66022755 -0.05106533 C109.81596552 -0.05231607 113.97170346 -0.05361039 118.12744141 -0.05493164 C119.36846798 -0.05532511 119.36846798 -0.05532511 120.6345658 -0.05572652 C134.04020842 -0.06008074 147.44584676 -0.06796693 160.85148683 -0.0771528 C174.60149677 -0.08649623 188.35150446 -0.09205708 202.10151744 -0.09408849 C210.58960731 -0.09546228 219.0776851 -0.09980513 227.56577125 -0.10791647 C233.38219107 -0.11319241 239.19860462 -0.11480235 245.01502666 -0.11350138 C248.37342712 -0.11285933 251.73178931 -0.11440289 255.09018898 -0.11920547 C258.72780667 -0.1241539 262.36537191 -0.12299396 266.00299072 -0.12025452 C267.06913203 -0.12316736 268.13527335 -0.1260802 269.23372197 -0.12908131 C270.20658674 -0.12709026 271.17945151 -0.12509921 272.18179703 -0.12304783 C273.0217384 -0.12342755 273.86167977 -0.12380727 274.72707391 -0.1241985 C276.94499641 -0.00300554 278.87141945 0.3831634 281 1 C281 1.66 281 2.32 281 3 C281.66 3.04125 282.32 3.0825 283 3.125 C290.4511914 5.29826416 296.22211228 11.38033833 300 18 C304.0244127 25.9678033 303.43000747 34.27722155 303.40405273 42.98168945 C303.40976069 44.70884644 303.41672659 46.43599966 303.42485046 48.16314697 C303.44275238 52.83893721 303.44161878 57.51453946 303.43590808 62.19035363 C303.43281118 66.10163852 303.43891442 70.01288756 303.44494683 73.92416734 C303.45898142 83.15675078 303.45744032 92.38924167 303.44604492 101.62182617 C303.43457137 111.1274158 303.44862899 120.63272303 303.4754414 130.13827544 C303.49763977 138.31605582 303.50422627 146.49374783 303.49836498 154.67155617 C303.4950033 159.54837729 303.49735762 164.42501752 303.51461601 169.30181313 C303.53014856 173.89105518 303.52606001 178.47988106 303.50731087 183.06910706 C303.50364204 184.74638989 303.50668329 186.42370398 303.51719666 188.10095787 C303.59169246 200.97602537 302.36355942 211.46690083 293.09375 221.1171875 C289.45698291 224.38756387 286.05764312 227 281 227 C281 227.66 281 228.32 281 229 C277.99924299 229.86754681 275.32628876 230.12753993 272.20693684 230.13422108 C270.75596512 230.14090784 270.75596512 230.14090784 269.27568084 230.14772969 C267.68567749 230.14745315 267.68567749 230.14745315 266.06355286 230.14717102 C264.37123544 230.15268605 264.37123544 230.15268605 262.64472979 230.1583125 C258.85014407 230.16935843 255.05558573 230.17319473 251.26098633 230.17700195 C248.54596726 230.18273383 245.83095229 230.18989978 243.11593628 230.19691467 C234.95879916 230.21666555 226.80166082 230.22674326 218.64450577 230.23564246 C214.80184364 230.24002736 210.95918288 230.24539363 207.11652184 230.25063133 C194.34063026 230.26764175 181.56473954 230.28213579 168.78883839 230.28938007 C165.47437857 230.29128992 162.15991877 230.29321026 158.84545898 230.29516602 C158.02168149 230.29564976 157.197904 230.2961335 156.34916355 230.2966319 C143.00531114 230.30493175 129.66154838 230.33026872 116.31773511 230.36274669 C102.61390284 230.39582868 88.91011611 230.41382984 75.20624369 230.41702431 C67.51363259 230.41918829 59.82115225 230.42792047 52.12858009 230.45348549 C45.57715234 230.47520804 39.02588713 230.48323529 32.47442744 230.47351871 C29.13341755 230.46897842 25.79301444 230.47303196 22.45200539 230.49028015 C18.82484268 230.50795709 15.19852852 230.50091234 11.57136536 230.48774719 C9.99809242 230.50420106 9.99809242 230.50420106 8.39303619 230.52098733 C-2.18157222 230.42842928 -9.13050788 226.69194048 -16.76171875 219.51171875 C-23.01590874 212.49349158 -25.11668323 205.05965806 -25.14717102 195.8666687 C-25.15084771 195.14751789 -25.1545244 194.42836708 -25.1583125 193.68742383 C-25.16932734 191.27712295 -25.17318946 188.86686522 -25.17700195 186.45654297 C-25.18326834 184.72835657 -25.18991529 183.00017151 -25.19691467 181.27198792 C-25.21793916 175.59539729 -25.22831653 169.91880645 -25.23828125 164.2421875 C-25.24232961 162.28601187 -25.24644655 160.32983638 -25.25063133 158.37366104 C-25.26968058 149.18141498 -25.28391137 139.98917693 -25.2922433 130.79691494 C-25.3020108 120.19660573 -25.32831874 109.59650561 -25.36874419 98.99627006 C-25.39893854 90.79652383 -25.41371538 82.59683741 -25.41702431 74.39703667 C-25.41937128 69.50283599 -25.42828553 64.60885875 -25.45348549 59.71471786 C-25.47682889 55.10668962 -25.48097432 50.49903092 -25.47072411 45.89095879 C-25.47023013 44.20518321 -25.47650947 42.51938906 -25.49028015 40.83366966 C-25.59438798 27.32725625 -23.86938907 18.16580434 -14.23828125 8.140625 C-7.97010989 2.14593407 -7.97010989 2.14593407 -2.625 1.75 C-1.325625 1.87375 -1.325625 1.87375 0 2 C0 1.34 0 0.68 0 0 Z M8 33 C8 87.12 8 141.24 8 197 C94.46 197 180.92 197 270 197 C270 142.88 270 88.76 270 33 C183.54 33 97.08 33 8 33 Z " fill="#FBFCFB" transform="translate(117,141)"/>
<path d="M0 0 C1.35627251 -0.00856522 1.35627251 -0.00856522 2.73994446 -0.01730347 C3.72961212 -0.01842133 4.71927979 -0.01953918 5.73893738 -0.02069092 C6.78312332 -0.02565582 7.82730927 -0.03062073 8.90313721 -0.03573608 C12.36427973 -0.05036456 15.82537642 -0.05716089 19.2865448 -0.06268311 C21.68927004 -0.06843401 24.09199526 -0.07419175 26.49472046 -0.07995605 C31.53608921 -0.09046801 36.57744201 -0.0963094 41.61882019 -0.09979248 C48.07857492 -0.10527744 54.53811888 -0.1293049 60.9978075 -0.15776443 C65.96234758 -0.17638842 70.92683686 -0.1815963 75.89140892 -0.18312836 C78.27284078 -0.18615597 80.65427172 -0.1941881 83.03566933 -0.20731354 C86.36791135 -0.2243685 89.69963817 -0.22249486 93.03190613 -0.21600342 C94.0155011 -0.2252182 94.99909607 -0.23443298 96.01249695 -0.243927 C101.29408478 -0.2116975 105.02516146 0.15579409 109.57951355 3.14044189 C112.9850455 6.73517007 115.57951355 10.18336107 115.57951355 15.28106689 C115.11004236 21.18857931 113.55999755 24.75020258 109.76701355 29.32794189 C104.38053431 33.79102469 98.09777371 33.43258922 91.46257019 33.4151001 C90.45856674 33.42021103 89.45456329 33.42532196 88.4201355 33.43058777 C85.10991919 33.44445814 81.79991167 33.44352897 78.4896698 33.44122314 C76.18330814 33.4451113 73.87694718 33.44944622 71.57058716 33.45420837 C66.739636 33.46166497 61.90875793 33.46138321 57.07780457 33.45611572 C50.89285634 33.4503201 44.70820748 33.46725731 38.52330875 33.4904604 C33.76117204 33.50520478 28.99910732 33.50606849 24.23695183 33.50295067 C21.9568313 33.50346346 19.6767067 33.50869335 17.39660835 33.51876259 C14.20615907 33.53112382 11.01629168 33.52433692 7.82585144 33.51275635 C6.41902603 33.52422195 6.41902603 33.52422195 4.98377991 33.53591919 C-1.96895716 33.4802487 -6.68175513 32.33142695 -12.23298645 27.89044189 C-15.64813402 23.59711352 -16.70911079 19.49642077 -16.29548645 14.07794189 C-15.47922319 9.12274377 -13.11683899 5.63117595 -9.35798645 2.32794189 C-6.20626104 0.39623922 -3.61086715 0.01366778 0 0 Z " fill="#FCFDFC" transform="translate(206.4204864501953,288.85955810546875)"/>
<path d="M0 0 C2.5625 2.0625 2.5625 2.0625 4.5625 4.0625 C4.5625 5.0525 4.5625 6.0425 4.5625 7.0625 C5.2225 7.0625 5.8825 7.0625 6.5625 7.0625 C7.45464652 9.73893957 7.69790211 11.31634378 7.6875 14.0625 C7.69136719 15.0834375 7.69136719 15.0834375 7.6953125 16.125 C7.5625 18.0625 7.5625 18.0625 6.5625 21.0625 C5.9025 21.0625 5.2425 21.0625 4.5625 21.0625 C4.335625 21.64 4.10875 22.2175 3.875 22.8125 C1.89620463 26.20472063 -0.94736942 28.31743471 -4.4375 30.0625 C-11.23980685 30.82107535 -15.97043607 30.27669512 -21.4375 26.0625 C-22.875 23.3125 -22.875 23.3125 -23.4375 21.0625 C-24.0975 21.0625 -24.7575 21.0625 -25.4375 21.0625 C-27.09776461 16.08170617 -27.03653425 11.75976371 -25.3125 6.875 C-19.04692342 -2.52336486 -9.87982864 -5.56863069 0 0 Z " fill="#F6F9F7" transform="translate(265.4375,192.9375)"/>
<path d="M0 0 C3.97629619 3.31358015 6.29977394 6.13783922 6.86328125 11.421875 C7.04655705 17.63395993 6.48720556 21.2359544 2.625 26.1875 C-2.36324796 30.15773818 -6.45295937 30.8307003 -12.7890625 30.5703125 C-17.8891191 29.81531923 -20.43177085 27.28368523 -23.6875 23.5 C-26.48896891 18.00082029 -26.99147518 13.46075221 -25.375 7.5 C-22.7352286 3.12787861 -19.38067498 -0.77045236 -14.42578125 -2.48828125 C-9.21840645 -3.31154241 -4.61309549 -2.47740313 0 0 Z " fill="#F9FBF9" transform="translate(216.375,192.8125)"/>
<path d="M0 0 C1.258125 -0.020625 2.51625 -0.04125 3.8125 -0.0625 C4.52019531 -0.07410156 5.22789062 -0.08570313 5.95703125 -0.09765625 C8 0 8 0 11 1 C11 1.66 11 2.32 11 3 C11.7425 3.20625 12.485 3.4125 13.25 3.625 C16.95039191 5.47519595 18.10270401 7.34092917 20 11 C21.46034733 17.03610228 21.16318983 21.56364333 18 27 C13.9 31 13.9 31 11 31 C11 31.66 11 32.32 11 33 C8.24921116 33.91692961 6.64051087 34.10886083 3.8125 34.0625 C2.554375 34.041875 1.29625 34.02125 0 34 C0 33.34 0 32.68 0 32 C-0.70125 31.979375 -1.4025 31.95875 -2.125 31.9375 C-6.36757751 30.55405081 -8.42179573 27.53279256 -11 24 C-12.85994341 20.28011318 -12.4375354 16.05935619 -12 12 C-10.68151841 8.13054316 -8.72554595 5.54858352 -5.4375 3.0625 C-3 2 -3 2 0 2 C0 1.34 0 0.68 0 0 Z " fill="#F8FBF9" transform="translate(301,239)"/>
<path d="M0 0 C1.03769531 -0.02578125 2.07539063 -0.0515625 3.14453125 -0.078125 C8.31619508 0.47953837 11.92307801 3.31018035 15.1875 7.25 C17.65119457 12.29470794 17.51948646 16.90288888 16.1875 22.25 C13.45151174 27.34459883 10.6871963 30.4167679 5.1875 32.25 C-1.16806109 33.04021186 -5.93183203 32.5315097 -11.18359375 28.72265625 C-14.39430697 25.81992511 -15.59747343 23.13301839 -16.0859375 18.85546875 C-16.29108554 13.5926326 -15.88303856 9.69698688 -12.8125 5.25 C-8.40404412 1.27163738 -5.88748534 0.08711446 0 0 Z " fill="#FAFCFA" transform="translate(304.8125,190.75)"/>
<path d="M0 0 C2.77020815 2.77671099 3.60449003 4.74816979 3.859375 8.68359375 C3.83617187 9.7509375 3.81296875 10.81828125 3.7890625 11.91796875 C3.77101562 12.995625 3.75296875 14.07328125 3.734375 15.18359375 C3.71117187 16.0034375 3.68796875 16.82328125 3.6640625 17.66796875 C3.0040625 17.66796875 2.3440625 17.66796875 1.6640625 17.66796875 C1.4371875 18.41046875 1.2103125 19.15296875 0.9765625 19.91796875 C-0.85686428 23.75943438 -3.56570574 25.78285287 -7.3359375 27.66796875 C-12.59168915 28.19182635 -16.98119845 28.33302247 -21.7734375 25.98046875 C-22.6190625 25.21734375 -23.4646875 24.45421875 -24.3359375 23.66796875 C-25.1196875 22.98734375 -25.9034375 22.30671875 -26.7109375 21.60546875 C-29.48757773 16.58615757 -29.10880932 11.09159931 -27.86328125 5.57421875 C-26.12992404 0.84121943 -23.37853867 -1.58306246 -19.3359375 -4.33203125 C-11.90205588 -7.07082974 -5.8657415 -4.54536543 0 0 Z " fill="#F9FBF9" transform="translate(170.3359375,195.33203125)"/>
<path d="M0 0 C0.495 0.33 0.99 0.66 1.5 1 C1.5 1.66 1.5 2.32 1.5 3 C2.0775 3.226875 2.655 3.45375 3.25 3.6875 C6.40527976 5.52807986 7.68625201 6.76116429 9.5 10 C9.83562583 14.02226584 9.73117269 17.97374223 9.5 22 C8.84 22 8.18 22 7.5 22 C7.2525 22.78375 7.005 23.5675 6.75 24.375 C5.34610901 27.32317108 4.49324263 27.9024777 1.5 29 C1.5 29.66 1.5 30.32 1.5 31 C-1.76225174 31.97403725 -4.72738661 32.13415799 -8.125 32.125 C-9.56746094 32.12886719 -9.56746094 32.12886719 -11.0390625 32.1328125 C-13.5 32 -13.5 32 -15.5 31 C-15.5 30.34 -15.5 29.68 -15.5 29 C-16.49 28.67 -17.48 28.34 -18.5 28 C-22.87383436 22.25153199 -23.39398984 17.1077711 -22.5 10 C-20.69696037 5.39223207 -17.38036056 2.91027042 -13.5 0 C-8.97258828 -1.50913724 -4.43573202 -1.77429281 0 0 Z " fill="#F7FAF8" transform="translate(164.5,240)"/>
<path d="M0 0 C4.01230528 1.97095698 6.71240216 4.14720364 9 8 C10.60420061 13.21080764 11.44610368 19.89586366 9.09375 24.9453125 C5.80234571 29.14396284 1.8833678 31.61900034 -3.39453125 32.31640625 C-9.11428146 32.58224172 -12.55610011 31.90196088 -17 28 C-20 24.6 -20 24.6 -20 22 C-20.66 22 -21.32 22 -22 22 C-22.62110153 11.33775713 -22.62110153 11.33775713 -20.375 6.5 C-14.14732755 -0.05544469 -8.86341321 -1.21583172 0 0 Z " fill="#FAFCFB" transform="translate(360,191)"/>
<path d="M0 0 C3.37034589 3.55916079 4.26792614 7.23971504 4.5 12.0625 C4.29435301 16.73565056 3.14347935 19.43172615 0 23 C-3.67715864 26.31841146 -6.18675304 27.85778455 -11.1875 28.25 C-16.86984565 27.87738717 -21.24157948 26.71214629 -25.375 22.6875 C-28.39920532 17.68592967 -29.46905087 13.69867386 -28.546875 7.95703125 C-27.66728642 4.80936069 -26.00794626 2.53946145 -24 0 C-23.319375 -0.8971875 -23.319375 -0.8971875 -22.625 -1.8125 C-16.08133653 -6.59440792 -6.0973319 -4.45726865 0 0 Z " fill="#FBFCFB" transform="translate(219,244)"/>
<path d="M0 0 C4.56863122 -0.33466975 7.20581739 0.05265815 10.79296875 3.01953125 C13.88506831 5.91426275 15.60264317 8.55563992 16.2265625 12.78515625 C16.38716933 19.39837847 15.53385694 24.32178132 10.85546875 29.26953125 C10.19546875 29.26953125 9.53546875 29.26953125 8.85546875 29.26953125 C8.85546875 29.92953125 8.85546875 30.58953125 8.85546875 31.26953125 C4.43786511 33.47833307 -1.18287791 32.42980681 -5.89453125 31.64453125 C-10.11735297 29.85795283 -11.56404255 28.02296936 -14.14453125 24.26953125 C-14.14453125 23.60953125 -14.14453125 22.94953125 -14.14453125 22.26953125 C-14.80453125 22.26953125 -15.46453125 22.26953125 -16.14453125 22.26953125 C-17.0053703 10.61950938 -17.0053703 10.61950938 -13.83203125 6.14453125 C-9.36974654 1.37092435 -6.24395523 0.7847594 0 0 Z " fill="#FAFCFA" transform="translate(354.14453125,239.73046875)"/>
<path d="M0 0 C4.68545486 0.07099174 8.39143757 1.60102683 12.1875 4.3125 C15.89751195 9.21928999 16.93468947 14.23752472 16.1875 20.3125 C14.82399615 25.11516005 12.84530614 28.34829342 8.4375 30.8125 C3.12224713 33.04530139 -1.34717448 32.74755745 -7 31.75 C-11.73105902 29.33190317 -14.15928181 25.27215458 -15.8125 20.3125 C-16.13876251 13.67849569 -15.88439625 8.83237382 -11.5 3.5 C-7.58013054 0.30940858 -4.94674509 0.40547091 0 0 Z " fill="#FAFCFA" transform="translate(255.8125,239.6875)"/>
<path d="M0 0 C0.66 0.33 1.32 0.66 2 1 C-0.64 3.64 -3.28 6.28 -6 9 C-6 6 -6 6 -3.5625 3.375 C-2.716875 2.59125 -1.87125 1.8075 -1 1 C-0.67 0.67 -0.34 0.34 0 0 Z " fill="#C1D9C5" transform="translate(346,241)"/>
<path d="M0 0 C0.66 0.33 1.32 0.66 2 1 C1.0479279 2.00596297 0.08812654 3.00461563 -0.875 4 C-1.40867187 4.556875 -1.94234375 5.11375 -2.4921875 5.6875 C-4 7 -4 7 -6 7 C-4.60667426 3.63279613 -3.0210714 2.0140476 0 0 Z " fill="#D2E3D5" transform="translate(346,192)"/>
<path d="M0 0 C0.66 0.33 1.32 0.66 2 1 C-0.31 3.31 -2.62 5.62 -5 8 C-5 5 -5 5 -2.5 2.3125 C-1.675 1.549375 -0.85 0.78625 0 0 Z " fill="#DFEBE1" transform="translate(296,242)"/>
</svg>
