<?xml version="1.0" encoding="UTF-8"?>
<svg version="1.1" xmlns="http://www.w3.org/2000/svg" width="512" height="512">
<path d="M0 0 C168.96 0 337.92 0 512 0 C512 168.96 512 337.92 512 512 C343.04 512 174.08 512 0 512 C0 343.04 0 174.08 0 0 Z " fill="#106D20" transform="translate(0,0)"/>
<path d="M0 0 C1.01064302 -0.00297112 2.02128603 -0.00594224 3.0625546 -0.0090034 C6.45327149 -0.01768361 9.84395305 -0.01919808 13.23468018 -0.02069092 C15.66413447 -0.02531955 18.09358805 -0.03034427 20.52304077 -0.03573608 C27.12644334 -0.04885726 33.72983858 -0.05534128 40.333251 -0.05974674 C44.4586112 -0.06251207 48.58396907 -0.06674994 52.7093277 -0.07125092 C64.13760099 -0.08344103 75.56587242 -0.093741 86.99415207 -0.09712601 C87.72518 -0.09734557 88.45620792 -0.09756514 89.20938821 -0.09779136 C89.94213568 -0.09800964 90.67488315 -0.09822791 91.42983508 -0.09845281 C92.91458813 -0.09889627 94.39934119 -0.09934283 95.88409424 -0.09979248 C96.6205784 -0.10001391 97.35706256 -0.10023534 98.11586443 -0.10046348 C110.04670254 -0.10441062 121.97747954 -0.12186321 133.90829405 -0.145152 C146.16574274 -0.16888472 158.42316079 -0.18132872 170.68063283 -0.18249393 C177.55942823 -0.18340958 184.438144 -0.18913436 191.31691742 -0.20731354 C197.78803945 -0.2243555 204.25905075 -0.22595279 210.73019028 -0.21717453 C213.10332773 -0.21640382 215.47647329 -0.22075127 217.8495903 -0.23063278 C221.09342872 -0.24334625 224.3367315 -0.23747831 227.58056641 -0.22705078 C228.51589541 -0.23510719 229.45122442 -0.24316359 230.41489673 -0.25146413 C239.59789529 -0.18259729 246.89920388 2.18934598 254.02862549 8.03497314 C260.08533549 14.36165278 262.19357795 22.17431264 262.19142151 30.68501282 C262.1950982 31.46047893 262.19877488 32.23594505 262.20256299 33.03491014 C262.2136043 35.64179001 262.21744447 38.24863003 262.22125244 40.85552979 C262.22751689 42.72149787 262.23416367 44.58746471 262.24116516 46.45343018 C262.26221479 52.58997731 262.27257017 58.72652472 262.28253174 64.86309814 C262.28657932 66.97621613 262.29069624 69.08933399 262.29488182 71.20245171 C262.31393752 81.1326009 262.32816629 91.06274266 262.33649379 100.99290663 C262.34626019 112.44955654 262.3725626 123.90601293 262.41299468 135.36259466 C262.44318068 144.22048926 262.45796513 153.07832849 262.4612748 161.93627352 C262.46362297 167.22507492 262.47255275 172.51366969 262.49773598 177.80241585 C262.52106427 182.78223422 262.52523075 187.76171061 262.51497459 192.74156952 C262.51448024 194.56441067 262.520771 196.38726892 262.53453064 198.21005821 C262.62396899 210.76598093 261.88361065 220.91850889 252.91143799 230.44903564 C246.37903908 236.36645976 240.16786352 237.30644472 231.62979126 237.06987 C230.77239904 237.05081873 229.91500682 237.03176747 229.03163302 237.0121389 C227.15080357 236.97009979 225.27002448 236.92576177 223.38929558 236.87944221 C218.15414533 236.75148037 212.91858807 236.64310409 207.68301392 236.53410339 C206.56492332 236.51055719 205.44683273 236.48701099 204.2948606 236.46275127 C188.65812975 236.14288745 173.01892583 235.99992368 157.37978172 235.85211086 C144.66553623 235.72680449 131.95794099 235.53896428 119.24737549 235.20318604 C108.1385511 234.90996187 97.03542631 234.7412398 85.92266333 234.71307045 C80.05345031 234.69394093 74.1990983 234.61780851 68.33393478 234.3909893 C47.03817227 233.60118764 28.61257239 232.9209183 12.18314755 248.0471161 C6.27015293 253.83196332 0.7845725 260.03684531 -4.26023459 266.59339869 C-7.75461353 271.08719509 -10.7630464 273.72666703 -15.95574951 276.14044189 C-21.21124173 276.78585322 -24.46354884 275.89701958 -28.95574951 273.14044189 C-30.83074951 271.57794189 -30.83074951 271.57794189 -31.95574951 270.14044189 C-31.95574951 269.48044189 -31.95574951 268.82044189 -31.95574951 268.14044189 C-32.61574951 268.14044189 -33.27574951 268.14044189 -33.95574951 268.14044189 C-34.86398206 265.41574426 -35.08450308 263.82408658 -35.09555721 261.02262115 C-35.10124845 260.18044997 -35.1069397 259.33827878 -35.1128034 258.47058725 C-35.11398328 257.54521961 -35.11516315 256.61985196 -35.11637878 255.66644287 C-35.1214666 254.68342115 -35.12655442 253.70039943 -35.13179642 252.68758917 C-35.14755074 249.37825505 -35.15605391 246.06894282 -35.16448975 242.75958252 C-35.17402593 240.39278015 -35.18391699 238.0259792 -35.19413757 235.65917969 C-35.222841 228.54427233 -35.24261045 221.42935479 -35.25952992 214.3144114 C-35.2643263 212.30380419 -35.26930947 210.29319752 -35.27433515 208.28259087 C-35.30531285 195.79018335 -35.3319915 183.29777116 -35.34875393 170.805336 C-35.35270328 167.91182955 -35.35670629 165.01832318 -35.36077881 162.12481689 C-35.36178717 161.40567004 -35.36279553 160.68652318 -35.36383445 159.945584 C-35.38082587 148.30688607 -35.42191754 136.66840134 -35.4728018 125.02980739 C-35.52464584 113.07299875 -35.55370528 101.11629955 -35.56095082 89.15937948 C-35.56560509 82.44914736 -35.58096747 75.73931763 -35.62069511 69.02919006 C-35.65760075 62.71225634 -35.66595763 56.39591698 -35.65268898 50.07889557 C-35.65274287 47.76463187 -35.66301292 45.45034157 -35.68444061 43.13617706 C-35.87877828 20.95591149 -35.87877828 20.95591149 -28.95574951 12.14044189 C-28.37824951 11.21231689 -27.80074951 10.28419189 -27.20574951 9.32794189 C-19.01216771 1.36195959 -10.92664427 -0.01002671 0 0 Z " fill="#FDFEFD" transform="translate(141.95574951171875,117.85955810546875)"/>
<path d="M0 0 C0.64791242 -0.00765109 1.29582485 -0.01530219 1.96337098 -0.02318513 C4.12680832 -0.04376509 6.28917603 -0.03587778 8.4526825 -0.02792358 C10.00693236 -0.0366213 11.56117365 -0.04698877 13.11540222 -0.05889893 C17.33254768 -0.08566877 21.54933454 -0.08683732 25.7665484 -0.08177233 C29.29026996 -0.07963161 32.81391916 -0.08940319 36.33762521 -0.09898317 C44.65386479 -0.12117119 52.96992372 -0.12205048 61.28617859 -0.10995483 C69.85635789 -0.09788113 78.42588001 -0.12248185 86.99594718 -0.16509497 C94.36091041 -0.20036509 101.72566484 -0.21232357 109.09070939 -0.20581949 C113.48636788 -0.20219853 117.88155786 -0.20741691 122.27713966 -0.23524857 C126.41346565 -0.26045844 130.54877062 -0.2564699 134.68508148 -0.23042679 C136.19914538 -0.2257069 137.7132817 -0.23112337 139.2272625 -0.24767303 C146.81195099 -0.32457379 153.02413492 -0.35628906 159.01326275 4.84444618 C162.48129874 8.98951669 162.90824456 12.7052661 162.79911804 17.97451782 C162.19163389 22.0161471 160.47176513 24.82928519 157.41630554 27.52139282 C154.60380554 28.45889282 154.60380554 28.45889282 152.41630554 28.52139282 C152.41630554 29.18139282 152.41630554 29.84139282 152.41630554 30.52139282 C131.80627544 30.66160237 111.19632406 30.76738321 90.58591366 30.83226585 C81.01595039 30.86319384 71.44628359 30.90535407 61.87651062 30.97402954 C53.53472668 31.03386403 45.19315746 31.07254966 36.85116488 31.08592379 C32.43469539 31.09374078 28.01884014 31.11208981 23.60256767 31.15577316 C19.44344656 31.19657859 15.28519111 31.20904615 11.12588882 31.20003891 C9.60168944 31.20168604 8.07746033 31.21357473 6.55343437 31.23662567 C-6.38551849 31.42268521 -6.38551849 31.42268521 -10.92059326 27.7288208 C-14.39212849 24.13830342 -15.881155 20.62442599 -15.95869446 15.64639282 C-15.85272994 10.84266785 -14.82218213 8.19751397 -11.58369446 4.52139282 C-7.70777909 0.82178146 -5.33095436 0.01890895 0 0 Z " fill="#167025" transform="translate(182.5836944580078,176.47860717773438)"/>
<path d="M0 0 C1.53483747 -0.00542535 3.06966973 -0.01255033 4.60449219 -0.02124023 C8.75957162 -0.03942918 12.91425243 -0.03242413 17.06933856 -0.01972389 C21.42579872 -0.00957134 25.78222558 -0.01899599 30.13868713 -0.02526855 C37.4546621 -0.03253918 44.77047538 -0.02297346 52.08642578 -0.00390625 C60.53269019 0.01785328 68.9785682 0.01081555 77.42482322 -0.01121187 C84.68790783 -0.0293923 91.95087643 -0.03191106 99.21397644 -0.0214572 C103.5468895 -0.01523571 107.87962125 -0.01434928 112.21252251 -0.02760315 C116.28797517 -0.03919933 120.36293221 -0.03106774 124.4383316 -0.00802612 C125.92980948 -0.0027587 127.42132942 -0.00421901 128.9127903 -0.01307678 C136.80689548 -0.05561982 143.15318843 0.04830688 149.92016602 4.51757812 C152.9227715 7.61401503 153.23379988 10.65546555 153.54516602 14.83007812 C153.40423179 20.31909524 151.6646656 23.05547726 147.93969727 26.95898438 C143.68368627 30.24360408 139.76709074 30.76931698 134.4815979 30.78500366 C132.53017128 30.79779861 132.53017128 30.79779861 130.5393219 30.81085205 C129.10458362 30.81015308 127.66984543 30.80923005 126.23510742 30.80810547 C124.71865 30.81409222 123.20219562 30.8208981 121.68574524 30.82846069 C117.57204981 30.84611251 113.45843761 30.85081571 109.34470797 30.85209227 C106.773176 30.85351482 104.20166512 30.85778639 101.6301384 30.8630867 C92.65486052 30.88158388 83.67964201 30.88975766 74.7043457 30.88818359 C66.3444689 30.8869821 57.98485023 30.90808678 49.62503874 30.93967092 C42.44186078 30.96584037 35.25876711 30.97655062 28.07554185 30.97527277 C23.78787493 30.97476336 19.50043749 30.98043515 15.21281815 31.00162888 C11.17929359 31.02102279 7.14621717 31.02112811 3.11267662 31.00659561 C1.63527839 31.00450786 0.15785201 31.00920648 -1.31949806 31.02131653 C-15.19576303 31.12766432 -15.19576303 31.12766432 -21.07983398 26.51757812 C-24.60475247 22.81189459 -25.3569087 19.92826206 -25.51733398 14.95507812 C-25.33212234 10.68363461 -25.10562385 7.73858025 -22.07983398 4.51757812 C-15.36019801 -0.74191649 -8.21406538 -0.04871093 0 0 Z " fill="#146F24" transform="translate(192.079833984375,221.482421875)"/>
<path d="M0 0 C0.81596146 -0.00281982 1.63192291 -0.00563965 2.47261047 -0.00854492 C3.80989449 -0.00550858 3.80989449 -0.00550858 5.17419434 -0.00241089 C6.58676765 -0.00503937 6.58676765 -0.00503937 8.02787781 -0.00772095 C11.14633009 -0.01212865 14.26472583 -0.00920525 17.38317871 -0.00582886 C19.54646821 -0.00650221 21.70975764 -0.00747249 23.87304688 -0.00872803 C28.40914632 -0.01020353 32.94522608 -0.00805514 37.48132324 -0.00338745 C43.3023256 0.00230974 49.12328186 -0.00097005 54.94428253 -0.00695992 C59.4120112 -0.01056948 63.87972889 -0.00942511 68.34745789 -0.00683212 C70.49411525 -0.00616395 72.6407736 -0.00698746 74.78742981 -0.00931168 C77.78486783 -0.01184464 80.78223068 -0.00798843 83.77966309 -0.00241089 C84.67118576 -0.00443512 85.56270844 -0.00645935 86.48124695 -0.00854492 C87.2972084 -0.0057251 88.11316986 -0.00290527 88.95385742 0 C89.66250694 0.00037703 90.37115646 0.00075405 91.10128021 0.0011425 C92.97692871 0.12698364 92.97692871 0.12698364 95.97692871 1.12698364 C95.97692871 1.78698364 95.97692871 2.44698364 95.97692871 3.12698364 C96.57505371 3.37448364 97.17317871 3.62198364 97.78942871 3.87698364 C101.33450875 5.90274366 102.7035759 8.3069252 103.97692871 12.12698364 C104.43954826 16.93822699 104.00831162 20.42406788 101.35534477 24.56522274 C98.36672696 27.95136033 94.14675198 29.77455758 89.73220444 30.49157524 C87.26324691 30.63686853 84.824503 30.6565111 82.35144043 30.62869263 C81.4235672 30.63409561 80.49569397 30.6394986 79.53970337 30.64506531 C76.49500923 30.65749841 73.45127057 30.64110005 70.40661621 30.62307739 C68.28007966 30.62323248 66.15354282 30.62472307 64.02700806 30.62748718 C59.58033686 30.62886866 55.1339892 30.61635284 50.68737793 30.59353638 C44.99333888 30.56511813 39.29983568 30.56790195 33.60575676 30.58062649 C29.2185103 30.58758635 24.83138733 30.57979139 20.44415665 30.56736946 C18.3446411 30.56286041 16.24511228 30.56251338 14.14559555 30.56643486 C11.2113304 30.56935093 8.27780011 30.55282201 5.34362793 30.53103638 C4.48009705 30.53553802 3.61656616 30.54003967 2.72686768 30.54467773 C-3.7954627 30.46437237 -7.88220499 28.98860651 -12.89807129 24.62698364 C-15.72551567 20.96686147 -15.66221677 17.23872861 -15.44885254 12.75198364 C-14.68839661 8.06366817 -12.43973808 5.37193324 -8.96057129 2.31448364 C-5.9494573 0.46896217 -3.45389582 0.00183759 0 0 Z " fill="#136F23" transform="translate(182.0230712890625,265.8730163574219)"/>
</svg>
