<?xml version="1.0" encoding="UTF-8"?>
<svg version="1.1" xmlns="http://www.w3.org/2000/svg" width="512" height="512">
<path d="M0 0 C168.96 0 337.92 0 512 0 C512 168.96 512 337.92 512 512 C343.04 512 174.08 512 0 512 C0 343.04 0 174.08 0 0 Z " fill="#106D20" transform="translate(0,0)"/>
<path d="M0 0 C0.91873398 -0.01283524 1.83746796 -0.02567047 2.78404236 -0.03889465 C3.77255692 -0.04628159 4.76107147 -0.05366852 5.77954102 -0.0612793 C6.80845963 -0.06935104 7.83737823 -0.07742279 8.8974762 -0.08573914 C11.07876916 -0.09956717 13.26008365 -0.11029505 15.44140625 -0.11816406 C17.65338563 -0.12963682 19.86533836 -0.15001308 22.07714844 -0.1796875 C48.89907689 -0.53934929 48.89907689 -0.53934929 59.62719727 6.25512695 C68.44357391 14.88524212 74.34799288 23.45026834 74.72094727 36.11450195 C74.36656918 47.74991573 70.03456585 56.92233856 61.65844727 64.98950195 C53.20384935 71.99706292 42.68825636 73.33896932 32.10766602 73.2746582 C31.22689896 73.27324326 30.3461319 73.27182831 29.43867493 73.27037048 C26.63689723 73.26479133 23.83520064 73.25224266 21.03344727 73.23950195 C19.12915155 73.23448426 17.22485457 73.22992182 15.32055664 73.22583008 C10.66232246 73.21482872 6.0041486 73.19757845 1.34594727 73.17700195 C1.34871264 74.14330599 1.35147802 75.10961002 1.3543272 76.105196 C1.42104238 99.66024419 1.47027975 123.21528007 1.50138378 146.77040291 C1.51682677 158.16166678 1.53786705 169.55286809 1.57226562 180.9440918 C1.60224675 190.87722883 1.62154092 200.81032052 1.62821275 210.74350154 C1.63211027 215.99891008 1.64121614 221.25418898 1.66313744 226.50955582 C1.68364044 231.46549177 1.68975338 236.42124581 1.68527031 241.37722015 C1.68608937 243.1870892 1.69197213 244.99696492 1.70356369 246.80679703 C1.84882068 270.67580373 -3.86983906 290.43420134 -20.90405273 307.86450195 C-35.53234898 322.32564155 -53.13991326 328.57697556 -73.58203125 328.47973633 C-93.8490704 327.95802492 -110.51986225 319.24257986 -124.65405273 305.17700195 C-138.4110471 290.50121915 -144.365936 272.04190086 -144.12475586 252.20483398 C-143.4640852 235.0238826 -137.10060623 219.07708605 -125.65405273 206.17700195 C-125.15776367 205.58790039 -124.66147461 204.99879883 -124.15014648 204.3918457 C-113.30032954 192.45432781 -96.09128218 184.34877074 -80.11474609 182.95556641 C-77.41569748 182.83782352 -74.73064586 182.79724353 -72.02905273 182.80200195 C-71.06845947 182.80361328 -70.10786621 182.80522461 -69.11816406 182.80688477 C-57.51782719 183.00466736 -47.01190073 185.91155655 -36.65405273 191.17700195 C-35.99405273 191.50700195 -35.33405273 191.83700195 -34.65405273 192.17700195 C-34.6586617 191.3480051 -34.66327066 190.51900826 -34.66801929 189.66489029 C-34.77862978 169.45701092 -34.86127304 149.24918401 -34.91311359 129.04106522 C-34.9388522 119.2683955 -34.97391935 109.49592834 -35.03125 99.72338867 C-35.08121832 91.2017362 -35.11337529 82.6802305 -35.12449521 74.15843558 C-35.13099131 69.64967148 -35.14616752 65.14132711 -35.18270302 60.63269806 C-35.21687524 56.38088697 -35.22706336 52.1296648 -35.21959114 47.87772942 C-35.22095628 46.32500689 -35.23076188 44.77226276 -35.25008011 43.21965981 C-35.39927233 30.60023536 -33.33796682 20.13840628 -24.33374023 10.78637695 C-17.56925246 4.30505378 -9.49367063 0.11615106 0 0 Z " fill="#FEFEFE" transform="translate(290.654052734375,91.822998046875)"/>
<path d="M0 0 C0.66 0.33 1.32 0.66 2 1 C-0.11905463 3.17277714 -2.24472878 5.33826908 -4.375 7.5 C-4.97828125 8.12003906 -5.5815625 8.74007813 -6.203125 9.37890625 C-6.78320312 9.96542969 -7.36328125 10.55195313 -7.9609375 11.15625 C-8.49509277 11.70087891 -9.02924805 12.24550781 -9.57958984 12.80664062 C-11 14 -11 14 -13 14 C-11.54238919 10.63163511 -9.6759774 8.43494248 -7.0625 5.875 C-6.37285156 5.19179688 -5.68320313 4.50859375 -4.97265625 3.8046875 C-3 2 -3 2 0 0 Z " fill="#D9E8DC" transform="translate(175,289)"/>
</svg>
