<?xml version="1.0" encoding="UTF-8"?>
<svg version="1.1" xmlns="http://www.w3.org/2000/svg" width="512" height="512">
<path d="M0 0 C168.96 0 337.92 0 512 0 C512 168.96 512 337.92 512 512 C343.04 512 174.08 512 0 512 C0 343.04 0 174.08 0 0 Z " fill="#106D20" transform="translate(0,0)"/>
<path d="M0 0 C4.95 0 9.9 0 15 0 C15 0.66 15 1.32 15 2 C15.825 2.04125 16.65 2.0825 17.5 2.125 C25.54223496 4.13555874 31.6597987 11.29552141 37.375 17 C38.44041016 18.02867187 38.44041016 18.02867187 39.52734375 19.078125 C43.28296823 22.81237022 45.87854637 25.64380357 47 31 C47.66 31 48.32 31 49 31 C50.13127933 33.26255865 50.12890585 34.51787909 50.1328125 37.02734375 C50.13410156 37.81947266 50.13539063 38.61160156 50.13671875 39.42773438 C50.13285156 40.25595703 50.12898437 41.08417969 50.125 41.9375 C50.12886719 42.76185547 50.13273438 43.58621094 50.13671875 44.43554688 C50.13478516 45.62567383 50.13478516 45.62567383 50.1328125 46.83984375 C50.13168457 47.56550537 50.13055664 48.29116699 50.12939453 49.03881836 C50 51 50 51 49 54 C48.34 54 47.68 54 47 54 C46.814375 54.66 46.62875 55.32 46.4375 56 C44.35718011 60.34153716 41.2380302 63.47318912 38 67 C37.26910156 67.82242188 36.53820312 68.64484375 35.78515625 69.4921875 C30.28509603 75.67858002 24.74058327 81.69368527 18.43383789 87.06665039 C13.27103511 91.56739051 8.45706915 96.39949035 3.62109375 101.24609375 C2.64053119 102.22598053 1.65982041 103.20571901 0.67897034 104.18531799 C-1.36400213 106.2268264 -3.40518169 108.27010566 -5.44506836 110.31469727 C-8.03919866 112.91452404 -10.63779434 115.50983373 -13.2377634 118.10381985 C-15.26007825 120.12249396 -17.2799719 122.14357733 -19.29917717 124.1653614 C-20.71516246 125.58232324 -22.13313515 126.99729817 -23.55116272 128.41221619 C-28.03260575 132.90981116 -32.37383854 137.43729684 -36.4261322 142.32801819 C-41.48252227 147.69962071 -47.11532849 149.79549907 -54.36230469 150.17700195 C-57.75991353 150.23165459 -61.15671501 150.27651675 -64.5546875 150.29516602 C-66.01116669 150.30666624 -67.46760438 150.32708742 -68.92382812 150.35668945 C-86.99567248 150.72328738 -86.99567248 150.72328738 -94.15625 143.96484375 C-94.5996875 143.29582031 -95.043125 142.62679687 -95.5 141.9375 C-96.19609375 140.93009766 -96.19609375 140.93009766 -96.90625 139.90234375 C-100.35641685 133.90151783 -99.30272037 126.14348776 -99.35009766 119.4050293 C-99.36661456 117.68549017 -99.39384829 115.96601849 -99.43212891 114.24682617 C-99.48728443 111.75403617 -99.50883116 109.2628517 -99.5234375 106.76953125 C-99.54610687 106.01090286 -99.56877625 105.25227448 -99.59213257 104.47065735 C-99.55688068 95.43539787 -94.06004535 89.72250942 -87.95355225 83.56918335 C-87.17207825 82.79692413 -86.39060425 82.02466492 -85.58544922 81.22900391 C-84.7507309 80.39224121 -83.91601257 79.55547852 -83.05599976 78.69335938 C-80.3127544 75.94712141 -77.55895863 73.21173867 -74.8046875 70.4765625 C-72.8895115 68.56601431 -70.97644728 66.65335652 -69.06326294 64.74081421 C-65.06199305 60.74322459 -61.05515143 56.75129314 -57.04443359 52.76318359 C-51.89787319 47.64557546 -46.76068316 42.51866613 -41.62635612 37.38878822 C-37.20415511 32.97056661 -32.77770406 28.55661002 -28.35056162 24.14334059 C-26.93036449 22.72723754 -25.5107507 21.31055166 -24.09121323 19.89378738 C-21.44867009 17.25809932 -18.80277263 14.62582901 -16.15576172 11.99462891 C-15.37023926 11.2102243 -14.5847168 10.4258197 -13.77539062 9.61764526 C-12.69461746 8.54543732 -12.69461746 8.54543732 -11.5920105 7.4515686 C-10.9670764 6.82960917 -10.3421423 6.20764973 -9.6982708 5.56684303 C-7.25452458 3.3122163 -5.69179664 2.03217659 -2.3125 1.875 C-1.549375 1.91625 -0.78625 1.9575 0 2 C0 1.34 0 0.68 0 0 Z " fill="#FDFEFD" transform="translate(354,239)"/>
<path d="M0 0 C1.28267761 -0.00852997 2.56535522 -0.01705994 3.88690186 -0.02584839 C5.30116284 -0.02514942 6.71542373 -0.02422639 8.12968445 -0.02310181 C9.62481522 -0.02908873 11.1199429 -0.03589466 12.61506653 -0.04345703 C16.67097994 -0.06110857 20.72680893 -0.06581208 24.78275704 -0.0670886 C27.31878487 -0.06851135 29.85479132 -0.07278332 32.39081383 -0.07808304 C41.24405146 -0.09658121 50.09722891 -0.104754 58.95048523 -0.10317993 C67.19332808 -0.1019789 75.43590892 -0.12307409 83.67868549 -0.15466726 C90.76336625 -0.1808506 97.84796156 -0.19154635 104.93269032 -0.19026911 C109.16058674 -0.18976004 113.38825032 -0.19541265 117.6160984 -0.21662521 C121.59463597 -0.23604219 125.57271942 -0.23610875 129.55127335 -0.22159195 C131.0072884 -0.21950695 132.46333213 -0.22418637 133.91929817 -0.23631287 C142.85118667 -0.3058568 149.98094163 -0.26299443 156.7026825 6.26742554 C157.15772156 6.92742554 157.61276062 7.58742554 158.08158875 8.26742554 C158.55467468 8.92742554 159.02776062 9.58742554 159.5151825 10.26742554 C162.13784794 14.91380861 162.24485154 20.05795386 161.64408875 25.26742554 C159.80963141 31.35649777 156.03037877 35.92494516 150.64408875 39.26742554 C146.4052243 40.91308658 142.86944288 41.52205185 138.33323669 41.5415802 C136.46197868 41.55654289 136.46197868 41.55654289 134.55291748 41.57180786 C133.18324293 41.57270352 131.8135682 41.57336716 130.44389343 41.57382202 C128.99126767 41.58144952 127.53864592 41.58987803 126.08602905 41.5990448 C122.14988015 41.62094008 118.21380892 41.62978212 114.27760601 41.63487124 C111.81475855 41.63852107 109.35193124 41.64476441 106.88909149 41.65187263 C98.28641878 41.67635104 89.68380621 41.68941529 81.08110046 41.69296265 C73.07963464 41.69659543 65.07855296 41.72647627 57.07720447 41.76836723 C50.19374372 41.80313382 43.31040989 41.81851219 36.426862 41.81920868 C32.3218105 41.81999941 28.21715052 41.82864319 24.11219025 41.85720634 C20.24764561 41.8834964 16.38381405 41.88553215 12.51922035 41.8695507 C11.10757446 41.86774477 9.69588651 41.87434917 8.28433037 41.89036942 C-1.24511142 41.99185639 -9.08507923 41.07576319 -16.35115433 34.44725704 C-19.9049241 30.64801255 -20.73994501 27.35898092 -20.85591125 22.20492554 C-20.38367042 14.20697433 -19.04986154 9.38934975 -13.30513 3.74789429 C-9.09537075 0.55050198 -5.19702063 0.01564644 0 0 Z " fill="#FDFEFE" transform="translate(128.3559112548828,192.73257446289063)"/>
<path d="M0 0 C1.45646306 -0.00350779 2.91292226 -0.00917377 4.36936951 -0.01681519 C8.29713357 -0.03097607 12.22419022 -0.01408969 16.15188646 0.00946999 C20.27608916 0.02968497 24.40026552 0.02369405 28.52450562 0.0213623 C35.44597945 0.02141575 42.36717915 0.04109947 49.28857422 0.07324219 C57.27645799 0.11015865 65.26398337 0.11891237 73.25194132 0.11194468 C80.95774751 0.10562807 88.66343159 0.11641349 96.3692131 0.13591003 C99.63935469 0.14405794 102.90943363 0.14679843 106.1795845 0.1452179 C110.03260601 0.1443355 113.88528978 0.1586498 117.73822212 0.18444443 C119.14745381 0.19157296 120.55672151 0.19370591 121.96596718 0.19032669 C138.16348214 0.15890905 138.16348214 0.15890905 144.55615234 5.48242188 C149.35875454 11.38801404 151.78767087 15.53628839 151.55615234 23.27929688 C150.85621691 30.03028701 148.45460025 34.11672415 143.22802734 38.38867188 C138.84830269 41.19527094 135.11042307 41.86642722 129.94459534 41.87593079 C128.6590274 41.88301559 127.37345947 41.8901004 126.04893494 41.8973999 C124.63149989 41.89510627 123.21406518 41.8925966 121.79663086 41.88989258 C120.29825588 41.89424158 118.79988313 41.89942535 117.30151367 41.90538025 C113.23746181 41.91876102 109.173503 41.91934997 105.10943341 41.91681695 C101.71478209 41.91574666 98.32014954 41.92063208 94.92550224 41.92542237 C86.91622221 41.93651427 78.90698908 41.93695668 70.89770508 41.9309082 C62.63896036 41.92486718 54.38038596 41.93718336 46.12167031 41.95847827 C39.02683126 41.97609854 31.9320464 41.98209498 24.83718628 41.97884053 C20.60157543 41.97702827 16.36608608 41.97965811 12.13049507 41.99355507 C8.14709519 42.00613582 4.16396071 42.00418709 0.18056488 41.99114418 C-1.27950951 41.98877941 -2.73960258 41.99150955 -4.19965553 41.9997673 C-6.1963065 42.01024379 -8.19303315 42.00032644 -10.18968201 41.98945618 C-11.86405665 41.98970779 -11.86405665 41.98970779 -13.57225704 41.98996449 C-19.89429122 41.22913424 -23.6186642 38.15818052 -27.42822266 33.36132812 C-31.2219676 28.09485611 -31.17217603 22.91480987 -30.68603516 16.61523438 C-29.46656755 11.22925246 -27.39652412 7.46930624 -22.77070045 4.3050766 C-15.26599916 0.09329336 -8.44287467 -0.08622369 0 0 Z " fill="#FEFEFE" transform="translate(138.68603515625,122.384765625)"/>
<path d="M0 0 C0.88564636 -0.00700928 1.77129272 -0.01401855 2.68377686 -0.02124023 C5.58898997 -0.03873507 8.49321581 -0.02722783 11.3984375 -0.01367188 C13.43050319 -0.01636923 15.46256762 -0.02025369 17.49462891 -0.02526855 C21.74459168 -0.03115208 25.99421719 -0.0226375 30.24414062 -0.00390625 C35.67801767 0.01888242 41.11110431 0.00575321 46.54495239 -0.01819611 C50.73842266 -0.03268499 54.93170709 -0.0280339 59.12518311 -0.01768494 C61.12815445 -0.0150262 63.13114294 -0.01825724 65.13409424 -0.02760315 C67.93880585 -0.03781969 70.74225673 -0.02219661 73.546875 0 C74.77528107 -0.01214539 74.77528107 -0.01214539 76.02850342 -0.02453613 C82.26208111 0.06635837 87.67781244 1.58925119 92.30331421 5.96477509 C97.57204918 12.04697419 98.17916427 16.49619982 98.01171875 24.39257812 C97.47177061 31.47386515 93.80236157 34.74226956 88.7109375 39.19726562 C86.7734375 40.51757812 86.7734375 40.51757812 83.7734375 40.51757812 C83.7734375 41.17757812 83.7734375 41.83757812 83.7734375 42.51757812 C71.73411344 42.56391171 59.69481058 42.59945258 47.65541553 42.62120247 C42.06508549 42.63164113 36.47481643 42.64580195 30.88452148 42.66845703 C25.489925 42.6901823 20.0953872 42.70214613 14.70075035 42.70733261 C12.64226037 42.71102892 10.58377362 42.71824682 8.52530861 42.72903824 C5.64285966 42.74354883 2.76065341 42.74555623 -0.12182617 42.74462891 C-0.97346848 42.75181946 -1.82511078 42.75901001 -2.70256042 42.76641846 C-7.00137324 42.75144632 -10.3078976 42.51817288 -14.2265625 40.51757812 C-14.2265625 39.85757813 -14.2265625 39.19757813 -14.2265625 38.51757812 C-14.8040625 38.29070312 -15.3815625 38.06382812 -15.9765625 37.83007812 C-20.30818049 35.30330097 -22.94968925 31.30585282 -24.2265625 26.51757812 C-24.81501442 19.21096673 -24.30561392 13.57500669 -20.1015625 7.39257812 C-14.60608608 1.27005983 -7.90825694 -0.07818981 0 0 Z " fill="#FBFCFB" transform="translate(132.2265625,261.482421875)"/>
<path d="M0 0 C4.32504836 1.65863505 7.09418825 4.871041 10.25 8.125 C10.80429687 8.68832031 11.35859375 9.25164062 11.9296875 9.83203125 C13.29104485 11.21686028 14.64614859 12.60783204 16 14 C12.18335248 18.55055896 8.25128465 22.84993642 4 27 C-0.07376031 25.38989473 -2.76507069 22.46177729 -5.75 19.375 C-6.25660156 18.859375 -6.76320313 18.34375 -7.28515625 17.8125 C-8.52803902 16.54616661 -9.76465276 15.2736856 -11 14 C-9.42219077 10.28954753 -7.09296752 7.70093616 -4.375 4.75 C-3.55773437 3.85796875 -2.74046875 2.9659375 -1.8984375 2.046875 C-1.27195312 1.37140625 -0.64546875 0.6959375 0 0 Z " fill="#1B732A" transform="translate(361,267)"/>
<path d="M0 0 C0.66 0.33 1.32 0.66 2 1 C-1.3 4.3 -4.6 7.6 -8 11 C-8 6.67750434 -5.85084926 5.11604454 -3 2 C-2.01 1.34 -1.02 0.68 0 0 Z " fill="#CEE1D1" transform="translate(118,264)"/>
<path d="M0 0 C8.6309795 5.96583144 8.6309795 5.96583144 11 11 C7.84164893 9.60249952 5.67727175 7.94801766 3.25 5.5 C2.63640625 4.8915625 2.0228125 4.283125 1.390625 3.65625 C0 2 0 2 0 0 Z " fill="#E6F0E8" transform="translate(331,301)"/>
<path d="M0 0 C0.66 0.33 1.32 0.66 2 1 C-0.97 3.97 -3.94 6.94 -7 10 C-7 6.04435836 -5.59478606 4.89133304 -3 2 C-2.01 1.34 -1.02 0.68 0 0 Z " fill="#D6E6D9" transform="translate(117,126)"/>
</svg>
