<?xml version="1.0" encoding="UTF-8"?>
<svg version="1.1" xmlns="http://www.w3.org/2000/svg" width="512" height="512">
<path d="M0 0 C168.96 0 337.92 0 512 0 C512 168.96 512 337.92 512 512 C343.04 512 174.08 512 0 512 C0 343.04 0 174.08 0 0 Z " fill="#106D20" transform="translate(0,0)"/>
<path d="M0 0 C1.17200455 -0.00525696 2.34400909 -0.01051392 3.55152893 -0.01593018 C7.39679581 -0.02905476 11.24164353 -0.02042081 15.08691406 -0.01025391 C17.771103 -0.01227626 20.45527951 -0.01518484 23.13946533 -0.01895142 C28.75106294 -0.02438994 34.36254159 -0.01726449 39.97412109 -0.00292969 C46.45106745 0.01342516 52.92773086 0.0080803 59.40467048 -0.0084089 C64.98371283 -0.02204027 70.56267024 -0.02393636 76.14172387 -0.0160929 C79.46623919 -0.01142949 82.79059309 -0.01194323 86.11510468 -0.02070236 C89.81781687 -0.02832048 93.51998461 -0.01670804 97.22265625 0 C98.31681351 -0.00607269 99.41097076 -0.01214539 100.5382843 -0.0184021 C108.52406483 0.04835834 113.37257334 1.68404443 119.29003906 7.20068359 C120.14210938 7.98958984 120.99417969 8.77849609 121.87207031 9.59130859 C122.34080566 10.03152344 122.80954102 10.47173828 123.29248047 10.92529297 C125.03787512 12.56197603 126.79440375 14.18622568 128.55175781 15.81005859 C137.07730043 23.70415854 145.47700247 31.58002215 153.07519531 40.38427734 C157.31809736 45.16803284 161.87928265 49.59778019 166.72753906 53.76318359 C173.75247458 59.82201796 180.16566745 66.46881107 186.19628906 73.50927734 C189.58246532 77.3506707 193.22245617 80.98450111 197.10253906 84.32568359 C201.46688393 89.46937576 202.22810331 95.59969073 202.24021912 102.12315369 C202.24829742 103.22644078 202.24829742 103.22644078 202.25653893 104.35201651 C202.27074059 106.79385316 202.26373441 109.23514171 202.2565918 111.67700195 C202.26229945 113.43696017 202.26926523 115.19691468 202.27738953 116.9568634 C202.29529211 121.72135847 202.29415805 126.48566907 202.28844714 131.25018764 C202.28535119 135.23373533 202.29145224 139.21724779 202.29748589 143.20079046 C202.31151989 152.60109404 202.30997909 162.00130671 202.29858398 171.40161133 C202.28710277 181.08673845 202.30118108 190.77158865 202.32798046 200.45667928 C202.35015869 208.78474528 202.35677008 217.11272448 202.35090405 225.44081789 C202.34753849 230.40923577 202.34992294 235.37747613 202.36715508 240.34586906 C202.38265607 245.01882171 202.37863374 249.69136502 202.35984993 254.36430168 C202.35617283 256.07467574 202.35924681 257.78508033 202.36973572 259.49542618 C202.42670736 269.55704266 202.28001348 277.94871502 195.66503906 286.07568359 C187.55315592 292.74545418 180.7214486 296.70211723 169.98516846 296.65560913 C169.21122262 296.66014024 168.43727678 296.66467136 167.63987803 296.66933978 C165.05608131 296.68196253 162.47249595 296.68036478 159.88867188 296.67871094 C158.03211192 296.68469757 156.17555445 296.69150343 154.31900024 296.69906616 C149.28164134 296.716721 144.2443504 296.72142137 139.20696354 296.72269773 C136.05732837 296.72412034 132.90771042 296.72839206 129.75807953 296.73369217 C118.76286219 296.75219172 107.76769332 296.760363 96.77246094 296.75878906 C86.5352796 296.75758814 76.29830926 296.77868114 66.06118131 296.81027639 C57.26266531 296.83646053 48.46421813 296.84715544 39.66566348 296.84587824 C34.41492465 296.84536918 29.16437331 296.85102148 23.9136734 296.87223434 C18.97237473 296.89165234 14.0314417 296.89171681 9.09012985 296.87720108 C7.2818053 296.87511621 5.47345766 296.87979462 3.66517258 296.891922 C-8.3296269 296.96712261 -18.51808678 296.49704431 -27.68652344 287.88818359 C-34.90790286 280.47371916 -36.59761675 274.10413323 -36.54859924 264.06025696 C-36.55539591 263.03368758 -36.56219258 262.0071182 -36.56919521 260.94944066 C-36.58815459 257.51656456 -36.58573112 254.08404564 -36.58325195 250.65112305 C-36.59223034 248.18682904 -36.60243876 245.72253925 -36.61378479 243.258255 C-36.6375315 237.26268039 -36.64694729 231.26724568 -36.64862192 225.27163706 C-36.65004979 220.39489176 -36.65622594 215.51817554 -36.6657238 210.64143944 C-36.69213312 196.79851251 -36.70598384 182.95565524 -36.70373238 169.11270294 C-36.70361251 168.36709056 -36.70349264 167.62147818 -36.70336914 166.85327148 C-36.7032465 166.1067428 -36.70312386 165.36021411 -36.7029975 164.59106334 C-36.70177892 152.50062356 -36.73046958 140.41046442 -36.77278424 128.32010577 C-36.81594385 115.88966985 -36.83659098 103.45937059 -36.83400291 91.02885789 C-36.83300922 84.05657131 -36.84115159 77.08457884 -36.87353706 70.11236 C-36.90381708 63.55162032 -36.90277697 56.99139374 -36.88098717 50.43058586 C-36.87785694 48.02806312 -36.88489507 45.62550139 -36.90306854 43.22304535 C-37.07720703 18.59990723 -37.07720703 18.59990723 -28.33878422 8.24490833 C-20.47513561 0.47077349 -10.5350228 -0.05890645 0 0 Z " fill="#FDFEFD" transform="translate(173.1474609375,107.61181640625)"/>
<path d="M0 0 C1.40140228 -0.01051392 1.40140228 -0.01051392 2.83111572 -0.02124023 C5.90407477 -0.03877306 8.97610466 -0.02721302 12.04907227 -0.01367188 C14.19466833 -0.01636836 16.34026321 -0.02025209 18.4858551 -0.02526855 C22.9771796 -0.03115743 27.4681853 -0.02262094 31.95947266 -0.00390625 C37.7038817 0.01886885 43.44754255 0.00576505 49.1919241 -0.01819611 C53.62129811 -0.03268218 58.05049612 -0.02803492 62.47987556 -0.01768494 C64.59728141 -0.01502471 66.71470346 -0.01826251 68.83209038 -0.02760315 C71.79734199 -0.03781331 74.76139935 -0.02220427 77.7265625 0 C78.59382462 -0.00809692 79.46108673 -0.01619385 80.35462952 -0.02453613 C86.17790926 0.05585328 90.53368678 1.29966749 95.42797852 4.51757812 C98.16573718 7.47031091 99.26062848 10.80884623 99.65063477 14.79101562 C99.42595846 20.05742821 97.67437197 23.23277699 94.19360352 27.10742188 C89.28566555 31.02725728 84.12770955 30.80927298 78.14306641 30.79223633 C77.21563126 30.79734726 76.28819611 30.80245819 75.33265686 30.807724 C72.27191689 30.82160541 69.21140245 30.82066436 66.15063477 30.81835938 C64.01981014 30.82224698 61.8889863 30.82658179 59.75816345 30.8313446 C55.29366544 30.83880361 50.82924651 30.83851774 46.36474609 30.83325195 C40.64711929 30.82745655 34.92981634 30.84439176 29.21224308 30.86759663 C24.81215018 30.8823367 20.41213523 30.8832053 16.01202202 30.8800869 C13.90412187 30.88059993 11.79621733 30.88583426 9.68834114 30.89589882 C6.73944238 30.90825156 3.79117402 30.90147841 0.84228516 30.88989258 C-0.02595886 30.89753632 -0.89420288 30.90518005 -1.78875732 30.91305542 C-8.34792517 30.85616974 -12.47605739 29.47381128 -17.38452148 24.89257812 C-20.27922987 21.09562297 -20.96252335 17.22750883 -20.57202148 12.51757812 C-19.2905997 7.76877976 -17.64513017 5.26185882 -13.57066345 2.43591309 C-9.0988981 -0.04324746 -5.02231358 -0.04678009 0 0 Z " fill="#136F23" transform="translate(216.572021484375,255.482421875)"/>
<path d="M0 0 C0.83535278 -0.01142029 1.67070557 -0.02284058 2.53137207 -0.03460693 C3.89355865 -0.03796051 3.89355865 -0.03796051 5.28326416 -0.04138184 C6.24635498 -0.05131165 7.2094458 -0.06124146 8.20172119 -0.07147217 C11.38811096 -0.10068301 14.57430155 -0.11431432 17.76080322 -0.12536621 C19.97794601 -0.1368726 22.19508875 -0.14838803 24.41223145 -0.15991211 C29.06261115 -0.1809234 33.7129218 -0.19261412 38.36334229 -0.19958496 C44.31312399 -0.21054744 50.26198866 -0.25858917 56.211483 -0.31552887 C60.79267006 -0.3528378 65.37363756 -0.36319578 69.95496368 -0.36625671 C72.14777892 -0.37229919 74.34059077 -0.38832083 76.53325653 -0.41462708 C79.60687817 -0.44886746 82.67827744 -0.44496192 85.75201416 -0.43200684 C87.10205536 -0.45965118 87.10205536 -0.45965118 88.47937012 -0.487854 C95.07676009 -0.40105863 99.08550886 1.62913451 103.77642822 6.28088379 C105.91052871 10.54908477 105.50148346 15.67160405 104.77642822 20.28088379 C102.53779442 24.08421713 99.75976066 27.28921757 95.77642822 29.28088379 C94.44244025 29.3763926 93.10384811 29.41152798 91.76644897 29.41459656 C90.50887283 29.42099403 90.50887283 29.42099403 89.22589111 29.42752075 C87.84349243 29.42684097 87.84349243 29.42684097 86.4331665 29.42614746 C84.9793306 29.43118538 84.9793306 29.43118538 83.49612427 29.43632507 C80.27965019 29.44585424 77.06322806 29.44777921 73.84674072 29.44885254 C71.61715676 29.45206389 69.38757301 29.45542787 67.1579895 29.4589386 C62.47887687 29.46493489 57.79978271 29.466778 53.1206665 29.46618652 C47.11921963 29.4660849 41.11789107 29.47973473 35.11647224 29.49695873 C30.50972955 29.50806724 25.90301555 29.51010608 21.29626083 29.5095768 C19.08343981 29.51075874 16.87061809 29.51519247 14.65781021 29.52290916 C11.56461511 29.53268525 8.47167809 29.5298403 5.378479 29.52380371 C4.00215302 29.53223297 4.00215302 29.53223297 2.59802246 29.54083252 C1.75399872 29.53663803 0.90997498 29.53244354 0.04037476 29.52812195 C-1.05634961 29.5289391 -1.05634961 29.5289391 -2.17523003 29.52977276 C-6.25616448 29.03390845 -8.14863768 27.35922398 -10.97357178 24.40588379 C-14.3147872 19.45631933 -14.22590167 14.01643816 -13.22357178 8.28088379 C-10.56733236 2.83245569 -5.95314843 0.04896232 0 0 Z " fill="#126E22" transform="translate(210.22357177734375,315.7191162109375)"/>
<path d="M0 0 C4.80362065 4.00472215 9.32830412 8.19140776 13.72973633 12.63208008 C14.36152802 13.26533203 14.9933197 13.89858398 15.64425659 14.55102539 C17.00286627 15.91341406 18.36032052 17.27695578 19.71671486 18.64155006 C21.86194426 20.79962336 24.01035267 22.9544866 26.15959167 25.10856628 C30.71338332 29.67373605 35.26321417 34.24284066 39.8125 38.8125 C45.10285396 44.12644683 50.39481457 49.4387728 55.69098473 54.74692345 C57.81026327 56.87269656 59.92651607 59.00145113 62.04267883 61.13032532 C63.33405093 62.42532774 64.6255624 63.72019121 65.91723633 65.01489258 C66.50684647 65.60966904 67.0964566 66.2044455 67.70393372 66.81724548 C70.575181 69.7727289 70.575181 69.7727289 74 72 C74 72.66 74 73.32 74 74 C65.90677425 74.09291116 57.81377343 74.16387112 49.72014523 74.20724869 C45.9614311 74.22807378 42.20308337 74.256297 38.44458008 74.30175781 C34.81355276 74.34539908 31.1828766 74.36917526 27.55160713 74.37950897 C26.17016641 74.3868678 24.78874369 74.40123787 23.40745354 74.42292023 C9.60672461 74.6308265 9.60672461 74.6308265 4 70 C0.61276284 65.68670626 -0.49732972 62.91220988 -0.45410156 57.44384766 C-0.45379944 56.16297272 -0.45349731 54.88209778 -0.45318604 53.56240845 C-0.43276412 52.17962002 -0.41190021 50.79683806 -0.390625 49.4140625 C-0.38315674 47.9877502 -0.37746657 46.56142758 -0.37347412 45.13510132 C-0.35826348 41.39645638 -0.31902257 37.65844143 -0.2746582 33.92004395 C-0.23360585 30.09912638 -0.21544196 26.27810618 -0.1953125 22.45703125 C-0.1525226 14.97106819 -0.08432835 7.48562265 0 0 Z " fill="#157024" transform="translate(271,138)"/>
</svg>
