<?xml version="1.0" encoding="UTF-8"?>
<svg version="1.1" xmlns="http://www.w3.org/2000/svg" width="512" height="512">
<path d="M0 0 C168.96 0 337.92 0 512 0 C512 168.96 512 337.92 512 512 C343.04 512 174.08 512 0 512 C0 343.04 0 174.08 0 0 Z " fill="#106D20" transform="translate(0,0)"/>
<path d="M0 0 C0.86527817 -0.01283524 1.73055634 -0.02567047 2.62205505 -0.03889465 C3.56154495 -0.04628159 4.50103485 -0.05366852 5.46899414 -0.0612793 C6.92384972 -0.07338692 6.92384972 -0.07338692 8.40809631 -0.08573914 C10.46849781 -0.09959243 12.52892238 -0.11030899 14.58935547 -0.11816406 C17.71050125 -0.13525897 20.83055484 -0.17911938 23.95141602 -0.22338867 C37.08781006 -0.32680249 48.36311118 0.10872513 58.81274414 9.04418945 C71.0912608 22.11255221 70.17382555 44.26405872 70.81665039 61.17700195 C71.47665039 61.17700195 72.13665039 61.17700195 72.81665039 61.17700195 C72.81665039 68.43700195 72.81665039 75.69700195 72.81665039 83.17700195 C72.15665039 83.17700195 71.49665039 83.17700195 70.81665039 83.17700195 C70.48665039 85.48700195 70.15665039 87.79700195 69.81665039 90.17700195 C69.15665039 90.17700195 68.49665039 90.17700195 67.81665039 90.17700195 C67.61813477 90.85633789 67.41961914 91.53567383 67.21508789 92.2355957 C65.29758709 96.26877476 62.521578 99.04535077 59.44165039 102.23950195 C58.81967773 102.89418457 58.19770508 103.54886719 57.55688477 104.22338867 C55.65368089 106.21807411 53.73828638 108.20007784 51.81665039 110.17700195 C50.95765137 111.060896 50.95765137 111.060896 50.08129883 111.96264648 C44.8654512 117.30371155 39.60784648 122.45888043 33.81665039 127.17700195 C34.36449662 130.77535557 35.1898328 133.10990428 37.31665039 136.05200195 C39.63200607 139.37450999 41.76346808 142.74617078 43.79443359 146.25024414 C52.06366277 160.46222568 61.6139623 173.73746332 73.14770508 185.47729492 C75.00167513 187.36543704 76.8338623 189.27370847 78.66821289 191.1809082 C90.10149915 202.95731707 102.26499715 212.40303747 116.07788086 221.24438477 C116.82312012 221.72746094 117.56835938 222.21053711 118.33618164 222.70825195 C119.0075415 223.13686523 119.67890137 223.56547852 120.37060547 224.00708008 C120.84780029 224.3931543 121.32499512 224.77922852 121.81665039 225.17700195 C121.81665039 225.83700195 121.81665039 226.49700195 121.81665039 227.17700195 C123.46665039 227.50700195 125.11665039 227.83700195 126.81665039 228.17700195 C126.81665039 228.83700195 126.81665039 229.49700195 126.81665039 230.17700195 C127.60040039 230.32137695 128.38415039 230.46575195 129.19165039 230.61450195 C131.81665039 231.17700195 131.81665039 231.17700195 133.81665039 232.17700195 C133.81665039 232.83700195 133.81665039 233.49700195 133.81665039 234.17700195 C137.65288628 235.1898872 141.18961311 236.07530365 144.79702759 234.08361816 C146.77867752 232.35450382 148.55678676 230.53563526 150.33618164 228.59887695 C151.00203781 227.91649963 151.66789398 227.23412231 152.35392761 226.53106689 C154.47047025 224.35212261 156.54980138 222.14141115 158.62915039 219.92700195 C160.7337535 217.73505793 162.84535138 215.55003707 164.95793152 213.36578369 C166.2676251 212.00630011 167.57122592 210.64091352 168.86787415 209.26898193 C174.98306829 202.8191959 174.98306829 202.8191959 177.81665039 201.17700195 C179.13665039 201.17700195 180.45665039 201.17700195 181.81665039 201.17700195 C181.81665039 200.51700195 181.81665039 199.85700195 181.81665039 199.17700195 C183.46665039 199.17700195 185.11665039 199.17700195 186.81665039 199.17700195 C186.81665039 198.51700195 186.81665039 197.85700195 186.81665039 197.17700195 C193.08665039 197.17700195 199.35665039 197.17700195 205.81665039 197.17700195 C205.81665039 197.83700195 205.81665039 198.49700195 205.81665039 199.17700195 C206.97551758 199.14348633 208.13438477 199.1099707 209.32836914 199.07543945 C215.76380077 199.08298835 222.12580851 199.79926421 228.50830078 200.55639648 C229.91570839 200.71938164 231.32429861 200.87247632 232.73388672 201.01538086 C243.81654676 202.1403271 254.78102876 204.23780261 262.56665039 212.92700195 C264.81665039 216.17700195 264.81665039 216.17700195 264.81665039 218.17700195 C265.47665039 218.17700195 266.13665039 218.17700195 266.81665039 218.17700195 C266.81665039 219.49700195 266.81665039 220.81700195 266.81665039 222.17700195 C267.47665039 222.17700195 268.13665039 222.17700195 268.81665039 222.17700195 C269.77826648 225.06185021 269.94319626 226.87928674 269.94604492 229.8762207 C269.94919708 230.82730713 269.95234924 231.77839355 269.95559692 232.75830078 C269.95256058 234.29587036 269.95256058 234.29587036 269.94946289 235.86450195 C269.95089798 237.44557739 269.95089798 237.44557739 269.95236206 239.05859375 C269.95304277 241.2878424 269.9511961 243.51709304 269.94702148 245.74633789 C269.94167172 249.16337526 269.9469702 252.58028118 269.95336914 255.99731445 C269.95270834 258.16137724 269.95142714 260.32543995 269.94946289 262.48950195 C269.95249924 264.02707153 269.95249924 264.02707153 269.95559692 265.59570312 C269.95244476 266.54678955 269.9492926 267.49787598 269.94604492 268.4777832 C269.94485153 269.73328979 269.94485153 269.73328979 269.94363403 271.01416016 C269.81665039 273.17700195 269.81665039 273.17700195 268.81665039 276.17700195 C268.15665039 276.17700195 267.49665039 276.17700195 266.81665039 276.17700195 C266.70321289 276.75708008 266.58977539 277.3371582 266.47290039 277.93481445 C264.47751546 284.75237964 258.88135782 289.4182067 253.01977539 292.98950195 C231.8205887 304.41601393 192.00000588 291.39804759 170.73413086 285.04321289 C153.80042958 279.79110868 137.45760701 273.53889799 121.81665039 265.17700195 C120.48590265 264.50518898 119.15393218 263.83571254 117.81665039 263.17700195 C117.81665039 262.51700195 117.81665039 261.85700195 117.81665039 261.17700195 C117.12055664 261.09063477 116.42446289 261.00426758 115.70727539 260.9152832 C109.46841788 259.32184527 104.1073842 254.77206886 98.81665039 251.17700195 C98.12361816 250.70762207 97.43058594 250.23824219 96.71655273 249.75463867 C81.98233528 239.71760495 68.73747534 228.43355062 55.81665039 216.17700195 C54.99165039 215.39454102 54.16665039 214.61208008 53.31665039 213.8059082 C48.56753324 209.18046598 44.32477751 204.28744949 40.19165039 199.10668945 C38.12737977 196.56030299 35.99459313 194.09550582 33.82714844 191.63720703 C7.81665039 161.87753059 7.81665039 161.87753059 7.81665039 150.17700195 C7.15665039 150.17700195 6.49665039 150.17700195 5.81665039 150.17700195 C-8.19278601 124.24562796 -24.88384911 87.32222033 -23.18334961 57.17700195 C-23.84334961 57.17700195 -24.50334961 57.17700195 -25.18334961 57.17700195 C-25.58030429 51.84646769 -25.91288803 46.51547985 -26.18334961 41.17700195 C-26.22024902 40.46189453 -26.25714844 39.74678711 -26.29516602 39.01000977 C-26.81512687 27.50687576 -25.84983121 19.25460639 -18.30834961 10.23950195 C-15.23567331 6.9948475 -12.45930553 4.70412907 -8.18334961 3.17700195 C-7.52334961 3.17700195 -6.86334961 3.17700195 -6.18334961 3.17700195 C-6.18334961 2.51700195 -6.18334961 1.85700195 -6.18334961 1.17700195 C-3.88964082 0.03014756 -2.55164694 0.03297312 0 0 Z " fill="#FDFEFD" transform="translate(134.183349609375,107.822998046875)"/>
</svg>
