<?xml version="1.0" encoding="UTF-8"?>
<svg version="1.1" xmlns="http://www.w3.org/2000/svg" width="512" height="512">
<path d="M0 0 C168.96 0 337.92 0 512 0 C512 168.96 512 337.92 512 512 C343.04 512 174.08 512 0 512 C0 343.04 0 174.08 0 0 Z " fill="#106D20" transform="translate(0,0)"/>
<path d="M0 0 C32.00699301 0 32.00699301 0 49.78515625 6.33984375 C50.95876709 6.75709717 52.13237793 7.17435059 53.34155273 7.60424805 C54.56946533 8.04422119 55.79737793 8.48419434 57.0625 8.9375 C58.38023133 9.40747166 59.69802262 9.87727526 61.01586914 10.34692383 C77.3624343 16.17954043 93.68153595 22.08931946 110 28 C110 28.66 110 29.32 110 30 C112.64 30.33 115.28 30.66 118 31 C118 31.66 118 32.32 118 33 C118.7734375 33.08636719 119.546875 33.17273438 120.34375 33.26171875 C125.28050447 34.2585634 129.80721229 36.00934377 134.5 37.8125 C135.42425781 38.15603516 136.34851563 38.49957031 137.30078125 38.85351562 C149.81170943 43.62341886 149.81170943 43.62341886 152.375 48.75 C152.58125 49.4925 152.7875 50.235 153 51 C153.66 51 154.32 51 155 51 C156.83541963 56.5062589 157.32709473 62.25012659 154.75390625 67.58203125 C150.73501254 73.17878162 146.48713724 75.82054407 140 78 C136.48218952 78.56081348 133.03070602 78.63166429 129.47265625 78.63671875 C128.48486679 78.64766068 127.49707733 78.6586026 126.47935486 78.6698761 C124.39603858 78.6856654 122.3126189 78.69095958 120.22924805 78.6862793 C117.10086136 78.68748521 113.97727222 78.74712996 110.84960938 78.81054688 C99.95943829 78.90226609 90.82229355 78.15931104 80.87843323 73.45524597 C75.9598191 71.12996114 72.46808645 70.49427893 67 71 C66.01 71.66 65.02 72.32 64 73 C63.3885298 77.57101399 63.3885298 77.57101399 65.21313477 81.59716797 C67.372224 83.29222559 69.37845193 84.08817497 71.96484375 85.0078125 C73.41213867 85.52794922 73.41213867 85.52794922 74.88867188 86.05859375 C75.89478516 86.41050781 76.90089844 86.76242187 77.9375 87.125 C78.93974609 87.48464844 79.94199219 87.84429687 80.97460938 88.21484375 C89.20806463 91.18492943 89.20806463 91.18492943 97.83772278 92.13803101 C99.29485939 92.14621101 99.29485939 92.14621101 100.78143311 92.15455627 C102.37039398 92.15611977 102.37039398 92.15611977 103.99145508 92.15771484 C105.11220932 92.16279556 106.23296356 92.16787628 107.38768005 92.17311096 C109.82234223 92.18381293 112.25701423 92.19243379 114.69169044 92.19923019 C118.54595202 92.21101831 122.4001015 92.23047103 126.25431824 92.25234985 C137.2132085 92.31396976 148.17208712 92.36825392 159.13110352 92.40136719 C165.83368335 92.42170793 172.53603128 92.45761646 179.2385006 92.50212479 C181.79211711 92.51628481 184.3457698 92.52500722 186.8994236 92.52817917 C190.4732872 92.53308835 194.04660803 92.55624774 197.62036133 92.58349609 C199.20021317 92.57898689 199.20021317 92.57898689 200.8119812 92.5743866 C210.95448674 92.68920702 219.18483901 96.42953638 226.578125 103.51171875 C232.15638446 109.91327554 233.52831597 115.76992686 234 124 C230.67127033 125.34501718 227.33661463 126.67466957 224 128 C222.86046875 128.45503906 221.7209375 128.91007813 220.546875 129.37890625 C219.39703125 129.83136719 218.2471875 130.28382813 217.0625 130.75 C215.98097656 131.17796875 214.89945313 131.6059375 213.78515625 132.046875 C211 133 211 133 208 133 C208 133.66 208 134.32 208 135 C206.66267822 135.48073975 206.66267822 135.48073975 205.29833984 135.97119141 C201.79207654 137.23213145 198.286403 138.49470392 194.78097534 139.75796509 C193.17893389 140.33528849 191.57682223 140.91241706 189.97463989 141.48934937 C180.38512068 144.94394308 170.80830088 148.4297842 161.25390625 151.98046875 C160.38531982 152.30277466 159.5167334 152.62508057 158.62182617 152.95715332 C154.39646484 154.52543305 150.17311978 156.09881513 145.95263672 157.68017578 C144.41511365 158.25182826 142.87751972 158.82329018 141.33984375 159.39453125 C140.6383168 159.65952927 139.93678986 159.92452728 139.21400452 160.19755554 C136.32495593 161.26606887 134.10833245 162 131 162 C131 162.66 131 163.32 131 164 C128.36 164.33 125.72 164.66 123 165 C123 165.66 123 166.32 123 167 C121.35890364 167.51533493 119.71173514 168.01133774 118.0625 168.5 C117.14597656 168.7784375 116.22945313 169.056875 115.28515625 169.34375 C107.58967176 170.88101682 100.90784278 169.80197659 93.4375 167.6875 C92.63892578 167.47416016 91.84035156 167.26082031 91.01757812 167.04101562 C87.34927737 166.03948282 83.79158147 164.93179498 80.24316406 163.56445312 C76.05250805 161.97618191 71.8130498 160.74680081 67.48828125 159.58203125 C66.68955597 159.36358551 65.89083069 159.14513977 65.06790161 158.92007446 C62.48369481 158.21409834 59.89811438 157.51330135 57.3125 156.8125 C55.52145677 156.32404853 53.73052339 155.8351941 51.93969727 155.34594727 C48.34010216 154.36286738 44.74005806 153.38145964 41.13964844 152.40136719 C33.9011405 150.42955944 26.66909242 148.43449099 19.4375 146.4375 C18.26936768 146.11563721 17.10123535 145.79377441 15.89770508 145.4621582 C14.81642334 145.16398193 13.7351416 144.86580566 12.62109375 144.55859375 C11.23555298 144.17658813 11.23555298 144.17658813 9.82202148 143.78686523 C6.54382481 142.87280451 3.27230212 141.93494346 0 141 C0 94.47 0 47.94 0 0 Z " fill="#FDFEFD" transform="translate(186,241)"/>
<path d="M0 0 C0 0.66 0 1.32 0 2 C0.72574219 2.24492188 1.45148438 2.48984375 2.19921875 2.7421875 C5.31287937 4.14051207 7.31400755 5.81296221 9.8125 8.125 C10.60269531 8.84945312 11.39289063 9.57390625 12.20703125 10.3203125 C12.79871094 10.87460938 13.39039063 11.42890625 14 12 C17.01621438 10.64699355 19.07712353 9.10979291 21.4375 6.8125 C32.07453524 -2.67351277 43.84553416 -6.39802991 57.8125 -6.375 C58.68181152 -6.37556396 59.55112305 -6.37612793 60.44677734 -6.37670898 C68.28650518 -6.2434001 74.97937929 -4.51031035 82 -1 C82 -0.34 82 0.32 82 1 C83.08667969 1.38671875 83.08667969 1.38671875 84.1953125 1.78125 C93.87392368 5.98699748 101.04482367 14.37788232 105.28125 23.87109375 C111.09176722 39.16520516 110.59827437 56.08552586 104.08984375 71.09960938 C101.08559111 77.44388406 98.00284239 83.01499408 93 88 C91.6624185 89.63813291 90.34204717 91.29040439 89.03515625 92.953125 C84.07891818 99.05841519 78.66819035 104.6019366 73.0793457 110.12646484 C71.4305043 111.75691768 69.78993899 113.3953638 68.15039062 115.03515625 C63.10026785 120.06750058 58.02349263 125.02102856 52.55688477 129.60644531 C50.73798316 131.16655255 50.73798316 131.16655255 48.5 134 C45.87584527 137.14898567 43.08554272 139.69918885 39.9609375 142.3359375 C38.31929171 143.72904728 36.74415718 145.20002759 35.1875 146.6875 C27.32765677 152.38973921 18.58656026 154.25767457 9 153 C-1.39831013 150.32141939 -8.93884392 143.38287186 -16.28125 135.87890625 C-16.93903442 135.21592026 -17.59681885 134.55293427 -18.27453613 133.86985779 C-20.35458294 131.77217902 -22.42775671 129.66788564 -24.5 127.5625 C-26.57310056 125.46156771 -28.64773631 123.36221072 -30.72546387 121.26585388 C-32.01065796 119.96862757 -33.29317591 118.66874177 -34.5723877 117.36561584 C-38.32014871 113.57666401 -42.19530073 110.00688392 -46.24353027 106.54020691 C-56.23730604 97.77690046 -63.86082406 86.66092633 -70.8125 75.4375 C-71.37239624 74.55433105 -71.37239624 74.55433105 -71.94360352 73.65332031 C-77.26880182 64.83236555 -78.49125938 56.17915443 -78.375 46 C-78.38660156 44.98421875 -78.39820313 43.9684375 -78.41015625 42.921875 C-78.38408329 36.14290413 -77.31929254 30.36792849 -75 24 C-74.34 24 -73.68 24 -73 24 C-72.93619141 22.72769531 -72.93619141 22.72769531 -72.87109375 21.4296875 C-71.7009211 16.82246066 -69.32055987 14.47009283 -66.0625 11.125 C-65.51142578 10.53203125 -64.96035156 9.9390625 -64.39257812 9.328125 C-62.97826812 7.83648334 -61.49376941 6.41206253 -60 5 C-59.34 5 -58.68 5 -58 5 C-58 4.34 -58 3.68 -58 3 C-42.20752363 -10.65584722 -17.48526639 -8.7426332 0 0 Z " fill="#FDFEFD" transform="translate(311,106)"/>
<path d="M0 0 C0 0.66 0 1.32 0 2 C0.66 2.04125 1.32 2.0825 2 2.125 C8.7742251 4.10081566 13.9813171 9.37384394 18 15 C20.78089336 20.66110433 22.11811121 25.65127591 22.14044189 31.93106079 C22.14615204 32.89807922 22.15186218 33.86509766 22.15774536 34.86141968 C22.15886322 35.91084747 22.15998108 36.96027527 22.16113281 38.04150391 C22.16858017 39.71321655 22.16858017 39.71321655 22.17617798 41.41870117 C22.19077854 45.10466125 22.19759888 48.79057826 22.203125 52.4765625 C22.20887911 55.04381308 22.21463681 57.61106365 22.22039795 60.17831421 C22.22956075 64.87550444 22.23586285 69.57267754 22.2388947 74.26987517 C22.24336701 81.15898332 22.26088037 88.04789222 22.2898953 94.93693984 C22.31422564 100.92394964 22.32184436 106.91086614 22.32357025 112.89793015 C22.32658768 115.43432066 22.33458529 117.97071052 22.34775543 120.50706863 C22.36491099 124.06557316 22.36291201 127.6235992 22.35644531 131.18212891 C22.37026749 132.73805252 22.37026749 132.73805252 22.3843689 134.32540894 C22.32435185 144.92899844 20.31769086 153.63701878 13.328125 161.765625 C5.87770738 168.91602581 -1.64622306 171.34657531 -11.73828125 171.3828125 C-20.29293472 171.19817969 -26.0083641 168.0592487 -32.3125 162.375 C-39.78124058 154.13538094 -41.74715781 145.48646629 -41.63110352 134.61889648 C-41.63825882 133.43366394 -41.64541412 132.2484314 -41.65278625 131.02728271 C-41.66958168 127.14148446 -41.6503234 123.25685473 -41.62890625 119.37109375 C-41.62737087 116.65307447 -41.6321435 113.93507212 -41.63621521 111.21705627 C-41.64071967 105.53397377 -41.62496798 99.85122216 -41.59692383 94.16821289 C-41.56486361 87.62136874 -41.56489886 81.07512046 -41.5821386 74.52823395 C-41.59806483 68.19835936 -41.5912322 61.8687008 -41.57420158 55.53883553 C-41.56737396 52.85914962 -41.56948275 50.17992042 -41.57574654 47.5001812 C-41.58122264 43.75032031 -41.5607449 40.00145617 -41.53344727 36.25170898 C-41.53997314 35.1548024 -41.54649902 34.05789581 -41.55322266 32.92774963 C-41.44617882 24.2394502 -39.64893255 16.06080372 -33.5 9.5625 C-32.9328125 8.94503906 -32.365625 8.32757813 -31.78125 7.69140625 C-22.519744 -1.10296239 -12.00885738 -0.37226079 0 0 Z " fill="#FCFDFC" transform="translate(133,241)"/>
</svg>
