<?xml version="1.0" encoding="UTF-8"?>
<svg version="1.1" xmlns="http://www.w3.org/2000/svg" width="512" height="512">
<path d="M0 0 C168.96 0 337.92 0 512 0 C512 168.96 512 337.92 512 512 C343.04 512 174.08 512 0 512 C0 343.04 0 174.08 0 0 Z " fill="#106D20" transform="translate(0,0)"/>
<path d="M0 0 C4.64100565 2.95336723 6.99851136 5.53174941 8.75 10.75 C9.00645167 13.3238681 9.00645167 13.3238681 9.01564884 16.12180805 C9.02394783 17.19274875 9.03224682 18.26368945 9.04079729 19.36708289 C9.03974645 20.53769191 9.0386956 21.70830092 9.03761292 22.91438293 C9.04426073 24.16257755 9.05090854 25.41077217 9.05775779 26.69679087 C9.07581148 30.15894241 9.08134963 33.62101777 9.08474457 37.08321059 C9.09050719 40.81816981 9.10763327 44.55308033 9.12309265 48.28800964 C9.15782456 57.30493666 9.17342726 66.32185955 9.18721595 75.33883885 C9.19417971 79.58608619 9.20333586 83.83332867 9.21232414 88.08057213 C9.24152265 102.19987275 9.26631785 116.31916862 9.27694798 130.43849659 C9.27763867 131.34189753 9.27832936 132.24529847 9.27904099 133.1760752 C9.279733 134.08162511 9.28042502 134.98717502 9.281138 135.92016584 C9.28254999 137.75512684 9.2839708 139.59008784 9.28540039 141.42504883 C9.28610556 142.33525096 9.28681073 143.24545309 9.28753727 144.1832371 C9.29978973 158.93424924 9.34259126 173.6850045 9.39834059 188.43591002 C9.45512162 203.58280061 9.48559807 218.72956131 9.48996013 233.87655944 C9.49304197 242.3802041 9.5075409 250.88349171 9.55124092 259.38703346 C9.58834476 266.62731678 9.60152214 273.86714632 9.58353604 281.10751108 C9.57508355 284.80094721 9.57791347 288.49345676 9.61135483 292.18677139 C9.64731182 296.19339563 9.62887995 300.19795084 9.60523987 304.20466614 C9.62426552 305.36858299 9.64329117 306.53249983 9.66289335 307.73168689 C9.56588008 314.63012732 8.4507821 318.34970794 3.54415172 323.29456252 C-0.93636568 326.92921219 -5.65271823 327.2497573 -11.25 326.75 C-16.50718726 324.85741259 -19.08002532 322.18796456 -22.25 317.75 C-23.29114222 314.65900128 -23.37700728 311.78977265 -23.38142776 308.54250526 C-23.38526891 307.4827724 -23.38911005 306.42303954 -23.3930676 305.33119357 C-23.39220112 304.16798032 -23.39133463 303.00476707 -23.39044189 301.80630493 C-23.39341302 300.56980426 -23.39638414 299.33330359 -23.3994453 298.05933321 C-23.40662645 294.62526207 -23.40930468 291.19124096 -23.41004276 287.75716591 C-23.41189386 284.05428634 -23.4194414 280.35141761 -23.42617798 276.64854431 C-23.43975867 268.5515306 -23.44578539 260.45452185 -23.45018864 252.35749865 C-23.45295106 247.30265606 -23.45718838 242.24781538 -23.46169281 237.19297409 C-23.4738843 223.19980553 -23.48418439 209.2066385 -23.4875679 195.21346474 C-23.48778747 194.31792838 -23.48800703 193.42239203 -23.48823325 192.49971821 C-23.48845153 191.60203413 -23.48866981 190.70435004 -23.4888947 189.77946341 C-23.48933817 187.96039748 -23.48978473 186.14133155 -23.49023438 184.32226562 C-23.49056652 182.96878501 -23.49056652 182.96878501 -23.49090537 181.58796136 C-23.4948548 166.96172994 -23.51231376 152.3355483 -23.5355939 137.70933612 C-23.55929782 122.69583377 -23.57176929 107.68235641 -23.57293582 92.66883504 C-23.57385303 84.23802375 -23.57961709 75.80727735 -23.59775543 67.37648392 C-23.61314336 60.19880166 -23.61828458 53.02120435 -23.61001733 45.84350874 C-23.60610639 42.18099168 -23.60706196 38.51864576 -23.62107468 34.85614967 C-23.63612353 30.88657968 -23.62796036 26.91725152 -23.61749268 22.94766235 C-23.62554908 21.78891055 -23.63360548 20.63015874 -23.64190602 19.43629324 C-23.60202735 12.9917208 -23.29469044 8.08805905 -18.75 3.10546875 C-12.78554944 -1.53872583 -7.09677906 -2.72953041 0 0 Z " fill="#FEFEFE" transform="translate(263.25,93.25)"/>
<path d="M0 0 C4.01236373 1.97098569 6.69250253 4.15417088 9 8 C9 8.66 9 9.32 9 10 C9.66 10 10.32 10 11 10 C11 67.75 11 125.5 11 185 C10.34 185 9.68 185 9 185 C8.95875 185.721875 8.9175 186.44375 8.875 187.1875 C7.60534887 191.2685215 5.42277215 192.48531026 2 195 C-2.23593435 197.11796717 -7.41233327 196.62612288 -12 196 C-14.93928037 194.47574481 -17.0837821 192.70378966 -19 190 C-19.67578125 187.796875 -19.67578125 187.796875 -20 186 C-20.66 186 -21.32 186 -22 186 C-22.02333268 163.08699349 -22.040981 140.17398894 -22.05181217 117.26097298 C-22.05697434 106.62270842 -22.06401555 95.98445123 -22.07543945 85.34619141 C-22.08538869 76.07678659 -22.091854 66.80738711 -22.09408849 57.5379771 C-22.09539519 52.62729219 -22.09847848 47.71662256 -22.10573006 42.80594254 C-22.11249404 38.18824578 -22.11461618 33.57057065 -22.11310768 28.95286942 C-22.11338384 27.2540729 -22.11538673 25.5552757 -22.11920547 23.85648346 C-22.12414861 21.54501188 -22.12299597 19.23362298 -22.12025452 16.92214966 C-22.12117631 15.62610872 -22.1220981 14.33006779 -22.12304783 12.99475288 C-22 10 -22 10 -21 8 C-20.34 8 -19.68 8 -19 8 C-18.773125 7.4225 -18.54625 6.845 -18.3125 6.25 C-14.03713188 -1.0792025 -7.77482544 -1.05349938 0 0 Z " fill="#FAFBFA" transform="translate(196,158)"/>
<path d="M0 0 C4.0322912 1.98077463 6.46698025 3.70754471 8 8 C8.66 8 9.32 8 10 8 C11.48162872 10.96325744 11.1226073 13.6141302 11.12025452 16.92214966 C11.12110894 17.64256372 11.12196337 18.36297779 11.12284368 19.10522258 C11.12449736 21.53127355 11.11897895 23.95725613 11.11352539 26.38330078 C11.11324347 28.11756387 11.11340135 29.85182707 11.1139679 31.58609009 C11.11425567 36.30483981 11.10836209 41.0235643 11.10139394 45.74230814 C11.09515716 50.6697467 11.09455634 55.59718579 11.09336853 60.52462769 C11.09025617 69.86021566 11.08204407 79.19579198 11.07201904 88.53137481 C11.06085494 99.15757777 11.0553467 109.78378128 11.05032361 120.40998864 C11.03986138 142.27333228 11.02226378 164.13666541 11 186 C10.34 186 9.68 186 9 186 C8.773125 186.7425 8.54625 187.485 8.3125 188.25 C6.47907322 192.09146563 3.77023176 194.11488412 0 196 C-5.31135952 196.52940021 -9.67272741 196.66363629 -14.5 194.25 C-16.72083366 192.25124971 -18.50220217 190.57954071 -20 188 C-20 187.01 -20 186.02 -20 185 C-20.66 185 -21.32 185 -22 185 C-22 127.25 -22 69.5 -22 10 C-21.34 10 -20.68 10 -20 10 C-19.773125 9.2575 -19.54625 8.515 -19.3125 7.75 C-15.41969618 -0.40635086 -8.04099907 -0.82791669 0 0 Z " fill="#FAFCFA" transform="translate(327,158)"/>
<path d="M0 0 C3.74133511 2.49422341 6.98758961 5.3718209 8.44212341 9.7855835 C8.83902333 12.02462684 8.93255942 14.09432161 8.92602539 16.36816406 C8.92594986 17.24877502 8.92587433 18.12938599 8.92579651 19.03668213 C8.92063522 19.97848328 8.91547394 20.92028442 8.91015625 21.890625 C8.9087413 22.86159119 8.90732635 23.83255737 8.90586853 24.83294678 C8.90027663 27.93032935 8.88772559 31.02763932 8.875 34.125 C8.86998395 36.22656146 8.86542123 38.32812404 8.86132812 40.4296875 C8.85030985 45.57815292 8.83305074 50.72656416 8.8125 55.875 C8.1525 55.875 7.4925 55.875 6.8125 55.875 C6.585625 56.4525 6.35875 57.03 6.125 57.625 C3.90201132 61.43583774 0.95461008 63.49429664 -3.1875 64.875 C-8.80625724 65.2434431 -12.34461379 65.06690228 -17.1875 61.875 C-21.1875 57.55921053 -21.1875 57.55921053 -21.1875 54.875 C-21.8475 54.875 -22.5075 54.875 -23.1875 54.875 C-23.23711359 49.02174094 -23.27332065 43.16860561 -23.29736328 37.31518555 C-23.30739136 35.32590603 -23.32101717 33.33664114 -23.33837891 31.34741211 C-23.36276791 28.48026915 -23.37401526 25.6133219 -23.3828125 22.74609375 C-23.39313507 21.86352402 -23.40345764 20.98095428 -23.41409302 20.07164001 C-23.41512163 14.34957911 -23.37596703 8.52225409 -19.56640625 3.9140625 C-18.96699219 3.44742188 -18.36757813 2.98078125 -17.75 2.5 C-16.85474609 1.77683594 -16.85474609 1.77683594 -15.94140625 1.0390625 C-11.04168788 -2.2128664 -5.31571742 -1.87613556 0 0 Z " fill="#FCFDFC" transform="translate(394.1875,224.125)"/>
<path d="M0 0 C4.45560217 2.35390304 6.67148355 3.97711284 8.40576172 8.77368164 C9.64301815 13.37280856 9.56317541 17.88761869 9.5078125 22.62109375 C9.5049826 23.543423 9.50215271 24.46575226 9.49923706 25.41603088 C9.48810974 28.33999013 9.46301912 31.26363451 9.4375 34.1875 C9.42746057 36.17903201 9.4183364 38.17056886 9.41015625 40.16210938 C9.38819483 45.0248595 9.35371673 49.8873765 9.3125 54.75 C8.6525 54.75 7.9925 54.75 7.3125 54.75 C7.003125 55.86375 7.003125 55.86375 6.6875 57 C4.89565834 60.58368332 2.75138682 61.78492182 -0.6875 63.75 C-5.40935079 65.32395026 -9.22346719 65.32413051 -13.875 63.5 C-16.59950554 61.80475211 -18.62841816 60.20505911 -20.6875 57.75 C-20.6875 57.09 -20.6875 56.43 -20.6875 55.75 C-21.3475 55.75 -22.0075 55.75 -22.6875 55.75 C-22.76189398 49.61192448 -22.81621769 43.47411392 -22.85229492 37.33569336 C-22.86734159 35.2493838 -22.88778382 33.16310567 -22.91381836 31.0769043 C-22.95038295 28.07072169 -22.9672679 25.06495888 -22.98046875 22.05859375 C-22.99595261 21.13227646 -23.01143646 20.20595917 -23.02738953 19.25157166 C-23.02898929 13.03600541 -22.40120714 7.90185778 -18.1875 3.0078125 C-12.14236763 -1.55752184 -7.28685354 -2.47011984 0 0 Z " fill="#FCFDFC" transform="translate(131.6875,224.25)"/>
</svg>
