<?xml version="1.0" encoding="UTF-8" standalone="no"?>
<!-- Created with Inkscape (http://www.inkscape.org/) -->

<svg
   version="1.1"
   id="svg1"
   width="512"
   height="512"
   fill="#000000"
   viewBox="0 0 512 512"
   xmlns="http://www.w3.org/2000/svg"
   xmlns:svg="http://www.w3.org/2000/svg">
   <defs
      id="defs1" />
   <g
      id="g1">
      <path
         d="M 241.50057,510.80315 C 176.12947,507.52991 111.57058,476.8148 67.657592,428.09409 30.735802,387.13 7.8300917,336.63466 2.0179617,283.39243 0.41706166,268.72726 0.67153166,238.46166 2.5137117,224.43208 8.7321917,177.07359 27.625672,132.47911 56.843232,96.197521 98.526022,44.436929 157.95105,11.197141 224.54022,2.3950733 c 14.07644,-1.86068897 44.33064,-2.11689297 58.96035,-0.499298 69.6016,7.695792 134.15902,44.4607797 176.47066,100.4987747 26.4304,35.00472 43.73088,77.6256 49.52084,121.99788 1.83675,14.07624 2.08886,44.36372 0.49111,59 -9.43561,86.43529 -63.50837,163.44634 -141.48261,201.50117 -40.87502,19.94879 -81.30726,28.19746 -127,25.90955 z m 44.12979,-24.44868 c 95.07622,-12.4634 172.44525,-81.20898 195.78385,-173.96204 4.58893,-18.23748 5.78451,-28.00283 6.31086,-51.54642 0.43656,-19.52764 0.21864,-24.51509 -1.62762,-37.24987 C 476.35509,156.39695 439.98203,98.963971 383.50057,61.595864 363.80246,48.563605 338.27456,37.07499 316.36676,31.382865 292.84174,25.27055 285.63107,24.43923 256.00057,24.423234 c -24.71279,-0.01334 -28.76691,0.223794 -40,2.339688 C 117.47509,45.321443 45.429582,117.36696 26.871062,215.89243 c -2.1159,11.23309 -2.35303,15.28721 -2.33969,40 0.013,24.09345 0.28627,28.9248 2.20601,39.00193 4.82395,25.322 10.22275,41.83416 20.76124,63.49807 22.25305,45.74542 60.252698,83.74491 106.001948,106.00147 23.16164,11.26792 43.62193,17.68021 68.29132,21.40263 16.42841,2.47892 47.13703,2.74731 63.83847,0.55794 z m -40.62979,-59.1173 c -1.925,-0.24924 -8.92626,-1.53891 -15.55836,-2.86593 -57.65455,-11.53617 -106.9656,-51.49698 -130.852858,-106.04088 -18.11784,-41.37007 -20.0862,-87.07874 -5.62114,-130.53237 13.384198,-40.20665 41.792858,-75.83515 78.005088,-97.829462 11.42308,-6.938059 14.08145,-7.70311 18.78322,-5.405609 2.42422,1.184586 4.40832,3.189821 5.62842,5.688383 2.21512,4.536181 2.19569,4.615279 -5.36053,21.830968 -5.76497,13.13461 -10.2236,29.46916 -12.07051,44.2213 -1.66444,13.29461 -0.68477,37.98881 2.01399,50.76597 13.48232,63.83142 60.85001,111.17101 125.03268,124.95849 8.98498,1.93012 13.53005,2.25861 31.5,2.27665 18.16098,0.0182 22.41951,-0.28671 31.5,-2.25557 13.56636,-2.94151 26.15562,-7.16741 37.88389,-12.71667 10.546,-4.98986 12.28054,-5.24689 16.80229,-2.48978 9.25049,5.64042 6.88185,14.74445 -9.56121,36.7491 -27.54039,36.85549 -65.81126,61.40804 -110.55547,70.92651 -10.34019,2.19967 -15.07836,2.61086 -33.0695,2.86981 -11.55,0.16624 -22.575,0.0983 -24.5,-0.15091 z"
         id="path1" />
   </g>
</svg>